<svg width="145" height="49" viewBox="0 0 145 49" fill="none" xmlns="http://www.w3.org/2000/svg">
<rect x="1.34404" y="1.09795" width="142.734" height="46.7338" rx="9.49658" fill="#020A17"/>
<path d="M30.435 24.8254C30.4479 23.8238 30.7139 22.8417 31.2084 21.9706C31.7028 21.0994 32.4096 20.3675 33.2629 19.8429C32.7208 19.0687 32.0056 18.4316 31.1743 17.9821C30.3429 17.5326 29.4181 17.2832 28.4735 17.2537C26.4584 17.0422 24.5048 18.4595 23.478 18.4595C22.4313 18.4595 20.8503 17.2747 19.1478 17.3097C18.0466 17.3453 16.9734 17.6655 16.0327 18.2392C15.0921 18.8128 14.3161 19.6204 13.7803 20.5831C11.4595 24.6012 13.1906 30.5065 15.4137 33.7544C16.526 35.3449 17.8259 37.1214 19.5269 37.0584C21.1914 36.9894 21.813 35.997 23.8222 35.997C25.8127 35.997 26.3959 37.0584 28.1314 37.0183C29.9174 36.9893 31.0427 35.4208 32.116 33.8154C32.9152 32.6821 33.5301 31.4297 33.9381 30.1044C32.9004 29.6655 32.0149 28.9309 31.392 27.9921C30.769 27.0534 30.4362 25.952 30.435 24.8254Z" fill="white"/>
<path d="M27.157 15.1176C28.1309 13.9486 28.6106 12.4459 28.4945 10.9289C27.0067 11.0851 25.6324 11.7962 24.6454 12.9204C24.1628 13.4696 23.7932 14.1085 23.5577 14.8006C23.3222 15.4928 23.2254 16.2245 23.2729 16.9541C24.0171 16.9617 24.7533 16.8004 25.4261 16.4823C26.0989 16.1642 26.6907 15.6976 27.157 15.1176Z" fill="white"/>
<path d="M51.474 33.0321H45.7939L44.4299 37.0598H42.024L47.4041 22.1582H49.9037L55.2838 37.0598H52.8369L51.474 33.0321ZM46.3822 31.1735H50.8846L48.6651 24.6367H48.603L46.3822 31.1735Z" fill="white"/>
<path d="M66.9029 31.6281C66.9029 35.0043 65.0959 37.1735 62.3689 37.1735C61.6782 37.2096 60.9912 37.0505 60.3866 36.7143C59.7821 36.3781 59.2844 35.8785 58.9506 35.2727H58.899V40.6539H56.6689V26.1953H58.8275V28.0024H58.8686C59.2177 27.3994 59.7238 26.9024 60.3329 26.5642C60.9421 26.2259 61.6315 26.0592 62.3279 26.0816C65.0853 26.0817 66.9029 28.2613 66.9029 31.6281ZM64.6107 31.6281C64.6107 29.4285 63.474 27.9824 61.7396 27.9824C60.0357 27.9824 58.8896 29.459 58.8896 31.6281C58.8896 33.8172 60.0357 35.2832 61.7396 35.2832C63.474 35.2832 64.6107 33.8477 64.6107 31.6281Z" fill="white"/>
<path d="M78.8607 31.6281C78.8607 35.0043 77.0537 37.1735 74.3268 37.1735C73.636 37.2096 72.949 37.0505 72.3444 36.7143C71.7399 36.3781 71.2422 35.8785 70.9084 35.2727H70.8568V40.6539H68.6267V26.1953H70.7853V28.0024H70.8263C71.1755 27.3994 71.6815 26.9024 72.2907 26.5642C72.8999 26.2259 73.5893 26.0592 74.2857 26.0817C77.0432 26.0817 78.8607 28.2613 78.8607 31.6281ZM76.5685 31.6281C76.5685 29.4285 75.4318 27.9824 73.6974 27.9824C71.9935 27.9824 70.8474 29.459 70.8474 31.6281C70.8474 33.8172 71.9935 35.2832 73.6974 35.2832C75.4318 35.2832 76.5685 33.8477 76.5685 31.6281Z" fill="white"/>
<path d="M86.7639 32.9078C86.9291 34.3856 88.3647 35.3558 90.3264 35.3558C92.2061 35.3558 93.5584 34.3855 93.5584 33.0531C93.5584 31.8964 92.7428 31.2039 90.8115 30.7293L88.8803 30.264C86.144 29.6031 84.8736 28.3234 84.8736 26.2468C84.8736 23.6757 87.1143 21.9097 90.2959 21.9097C93.4447 21.9097 95.6033 23.6757 95.676 26.2468H93.4248C93.29 24.7597 92.0607 23.8621 90.2642 23.8621C88.4678 23.8621 87.2384 24.7703 87.2384 26.0921C87.2384 27.1457 88.0236 27.7656 89.9443 28.2402L91.5861 28.6433C94.6435 29.3663 95.9138 30.5945 95.9138 32.7741C95.9138 35.562 93.6931 37.3081 90.1611 37.3081C86.8564 37.3081 84.6252 35.603 84.481 32.9077L86.7639 32.9078Z" fill="white"/>
<path d="M100.727 23.6242V26.1953H102.793V27.9613H100.727V33.9508C100.727 34.8813 101.14 35.3149 102.049 35.3149C102.294 35.3106 102.539 35.2934 102.782 35.2633V37.0187C102.374 37.095 101.959 37.1296 101.544 37.1219C99.3439 37.1219 98.4861 36.2957 98.4861 34.1886V27.9613H96.9064V26.1953H98.4861V23.6242H100.727Z" fill="white"/>
<path d="M103.989 31.6281C103.989 28.2098 106.003 26.0617 109.142 26.0617C112.292 26.0617 114.296 28.2097 114.296 31.6281C114.296 35.0559 112.303 37.1946 109.142 37.1946C105.983 37.1946 103.989 35.0559 103.989 31.6281ZM112.024 31.6281C112.024 29.2832 110.949 27.8992 109.142 27.8992C107.335 27.8992 106.262 29.2938 106.262 31.6281C106.262 33.9824 107.335 35.3559 109.142 35.3559C110.949 35.3559 112.024 33.9824 112.024 31.6281Z" fill="white"/>
<path d="M116.135 26.1953H118.262V28.0445H118.313C118.457 27.467 118.795 26.9566 119.271 26.5991C119.747 26.2417 120.332 26.0589 120.926 26.0816C121.183 26.0807 121.44 26.1087 121.69 26.1648V28.2508C121.366 28.1516 121.028 28.1061 120.688 28.116C120.364 28.1029 120.042 28.16 119.742 28.2835C119.442 28.4069 119.172 28.5938 118.952 28.8313C118.731 29.0687 118.564 29.3512 118.463 29.6592C118.361 29.9672 118.328 30.2935 118.365 30.6156V37.0598H116.135L116.135 26.1953Z" fill="white"/>
<path d="M131.972 33.8688C131.672 35.841 129.752 37.1945 127.294 37.1945C124.134 37.1945 122.172 35.077 122.172 31.6797C122.172 28.2719 124.144 26.0617 127.201 26.0617C130.206 26.0617 132.097 28.1266 132.097 31.4207V32.1848H124.423V32.3195C124.388 32.7194 124.438 33.1222 124.57 33.5012C124.702 33.8802 124.914 34.2267 125.19 34.5178C125.467 34.8089 125.802 35.0378 126.173 35.1893C126.545 35.3409 126.945 35.4116 127.346 35.3969C127.873 35.4463 128.402 35.3242 128.854 35.0489C129.306 34.7735 129.657 34.3596 129.855 33.8688L131.972 33.8688ZM124.434 30.6262H129.865C129.885 30.2667 129.831 29.9069 129.705 29.5694C129.58 29.232 129.386 28.9241 129.135 28.6652C128.885 28.4063 128.584 28.2019 128.251 28.0648C127.918 27.9278 127.561 27.861 127.201 27.8688C126.837 27.8666 126.477 27.9364 126.141 28.0741C125.805 28.2118 125.5 28.4146 125.243 28.671C124.985 28.9274 124.782 29.2321 124.643 29.5677C124.504 29.9033 124.433 30.263 124.434 30.6262Z" fill="white"/>
<path d="M46.1027 10.9417C46.5703 10.9081 47.0394 10.9787 47.4764 11.1485C47.9133 11.3182 48.3071 11.5828 48.6294 11.9231C48.9517 12.2635 49.1945 12.6711 49.3402 13.1166C49.4858 13.5622 49.5308 14.0345 49.4719 14.4995C49.4719 16.787 48.2356 18.1019 46.1027 18.1019H43.5164V10.9417H46.1027ZM44.6285 17.0893H45.9785C46.3126 17.1092 46.6469 17.0545 46.9572 16.9289C47.2674 16.8034 47.5458 16.6102 47.772 16.3636C47.9982 16.1169 48.1665 15.8229 48.2647 15.5029C48.363 15.183 48.3886 14.8452 48.3398 14.5141C48.3851 14.1843 48.3568 13.8485 48.2571 13.5309C48.1573 13.2133 47.9886 12.9217 47.7629 12.677C47.5372 12.4323 47.2602 12.2405 46.9517 12.1155C46.6432 11.9904 46.3109 11.9351 45.9785 11.9535H44.6285V17.0893Z" fill="white"/>
<path d="M50.7281 15.3977C50.6941 15.0426 50.7348 14.6843 50.8474 14.3458C50.96 14.0073 51.1421 13.6961 51.382 13.4321C51.622 13.1682 51.9144 12.9572 52.2406 12.8129C52.5669 12.6686 52.9196 12.594 53.2764 12.594C53.6331 12.594 53.9859 12.6686 54.3121 12.8129C54.6383 12.9572 54.9308 13.1682 55.1707 13.4321C55.4106 13.6961 55.5927 14.0073 55.7053 14.3458C55.818 14.6843 55.8586 15.0426 55.8246 15.3977C55.8592 15.7531 55.8191 16.1119 55.7068 16.4509C55.5945 16.79 55.4125 17.1018 55.1725 17.3663C54.9325 17.6308 54.6398 17.8421 54.3133 17.9868C53.9867 18.1314 53.6335 18.2061 53.2764 18.2061C52.9192 18.2061 52.566 18.1314 52.2395 17.9868C51.9129 17.8421 51.6202 17.6308 51.3803 17.3663C51.1403 17.1018 50.9583 16.79 50.846 16.4509C50.7336 16.1119 50.6935 15.7531 50.7281 15.3977ZM54.7277 15.3977C54.7277 14.2264 54.2015 13.5414 53.2781 13.5414C52.3512 13.5414 51.8297 14.2264 51.8297 15.3977C51.8297 16.5784 52.3512 17.258 53.2781 17.258C54.2016 17.258 54.7277 16.5737 54.7277 15.3977Z" fill="white"/>
<path d="M62.5992 18.1018H61.493L60.3762 14.1221H60.2918L59.1797 18.1018H58.084L56.5945 12.6983H57.6762L58.6441 16.8215H58.7238L59.8348 12.6983H60.8578L61.9688 16.8215H62.0531L63.0164 12.6983H64.0828L62.5992 18.1018Z" fill="white"/>
<path d="M65.3355 12.6983H66.3621V13.5566H66.4418C66.577 13.2483 66.805 12.9899 67.094 12.8173C67.3831 12.6448 67.7188 12.5667 68.0543 12.5939C68.3172 12.5742 68.5812 12.6138 68.8267 12.7099C69.0722 12.8061 69.293 12.9562 69.4726 13.1492C69.6522 13.3422 69.7861 13.5732 69.8644 13.8249C69.9426 14.0767 69.9632 14.3429 69.9246 14.6037V18.1017H68.8582V14.8715C68.8582 14.0031 68.4809 13.5713 67.6922 13.5713C67.5137 13.563 67.3355 13.5934 67.1698 13.6604C67.0041 13.7274 66.8549 13.8294 66.7324 13.9594C66.6098 14.0895 66.5168 14.2445 66.4598 14.4139C66.4028 14.5832 66.383 14.7629 66.4019 14.9406V18.1018H65.3355L65.3355 12.6983Z" fill="white"/>
<path d="M71.6238 10.5889H72.6902V18.1018H71.6238V10.5889Z" fill="white"/>
<path d="M74.1726 15.3977C74.1387 15.0425 74.1794 14.6842 74.292 14.3458C74.4046 14.0073 74.5868 13.696 74.8267 13.4321C75.0667 13.1681 75.3591 12.9571 75.6854 12.8128C76.0116 12.6685 76.3644 12.5939 76.7212 12.5939C77.0779 12.5939 77.4307 12.6685 77.757 12.8128C78.0832 12.9571 78.3757 13.1681 78.6157 13.4321C78.8556 13.696 79.0377 14.0073 79.1504 14.3458C79.263 14.6842 79.3037 15.0425 79.2697 15.3977C79.3043 15.7532 79.2641 16.1119 79.1518 16.451C79.0394 16.79 78.8574 17.1018 78.6174 17.3663C78.3774 17.6307 78.0847 17.8421 77.7581 17.9867C77.4315 18.1314 77.0783 18.2061 76.7212 18.2061C76.364 18.2061 76.0108 18.1314 75.6843 17.9867C75.3577 17.8421 75.065 17.6307 74.825 17.3663C74.585 17.1018 74.4029 16.79 74.2906 16.451C74.1783 16.1119 74.1381 15.7532 74.1726 15.3977ZM78.1722 15.3977C78.1722 14.2264 77.6461 13.5414 76.7226 13.5414C75.7957 13.5414 75.2743 14.2264 75.2743 15.3977C75.2743 16.5784 75.7957 17.258 76.7226 17.258C77.6461 17.258 78.1722 16.5737 78.1722 15.3977Z" fill="white"/>
<path d="M80.3924 16.5737C80.3924 15.601 81.1166 15.0403 82.4021 14.9606L83.8658 14.8762V14.4098C83.8658 13.8391 83.4885 13.5168 82.7596 13.5168C82.1643 13.5168 81.7518 13.7354 81.6334 14.1174H80.601C80.71 13.1893 81.583 12.594 82.8088 12.594C84.1635 12.594 84.9275 13.2684 84.9275 14.4098V18.1018H83.901V17.3424H83.8166C83.6453 17.6148 83.4049 17.8369 83.1197 17.9859C82.8346 18.135 82.515 18.2057 82.1936 18.1908C81.9667 18.2144 81.7374 18.1902 81.5205 18.1198C81.3036 18.0493 81.1039 17.9342 80.9342 17.7819C80.7645 17.6295 80.6286 17.4433 80.5353 17.2352C80.442 17.0271 80.3933 16.8017 80.3924 16.5737ZM83.8658 16.1119V15.6602L82.5463 15.7445C81.8021 15.7943 81.4646 16.0475 81.4646 16.5238C81.4646 17.0102 81.8865 17.2932 82.4666 17.2932C82.6366 17.3104 82.8083 17.2932 82.9715 17.2427C83.1347 17.1922 83.2861 17.1094 83.4166 16.9992C83.5472 16.889 83.6542 16.7536 83.7314 16.6012C83.8086 16.4488 83.8543 16.2824 83.8658 16.1119Z" fill="white"/>
<path d="M86.3291 15.3977C86.3291 13.6903 87.2068 12.6086 88.5721 12.6086C88.9098 12.5931 89.2449 12.6739 89.5384 12.8418C89.8318 13.0097 90.0714 13.2576 90.2291 13.5566H90.3088V10.5889H91.3752V18.1018H90.3533V17.248H90.269C90.099 17.545 89.8511 17.7899 89.552 17.956C89.2529 18.1222 88.914 18.2034 88.5721 18.1908C87.1975 18.1909 86.3291 17.1092 86.3291 15.3977ZM87.4307 15.3977C87.4307 16.5438 87.9709 17.2334 88.8745 17.2334C89.7733 17.2334 90.3287 16.5338 90.3287 15.4024C90.3287 14.2762 89.7674 13.5666 88.8745 13.5666C87.9768 13.5666 87.4307 14.261 87.4307 15.3977Z" fill="white"/>
<path d="M95.7873 15.3977C95.7533 15.0426 95.7939 14.6843 95.9066 14.3458C96.0192 14.0073 96.2013 13.6961 96.4412 13.4321C96.6811 13.1682 96.9736 12.9572 97.2998 12.8129C97.626 12.6686 97.9788 12.594 98.3355 12.594C98.6923 12.594 99.0451 12.6686 99.3713 12.8129C99.6975 12.9572 99.9899 13.1682 100.23 13.4321C100.47 13.6961 100.652 14.0073 100.765 14.3458C100.877 14.6843 100.918 15.0426 100.884 15.3977C100.918 15.7531 100.878 16.1119 100.766 16.4509C100.654 16.79 100.472 17.1018 100.232 17.3663C99.9917 17.6308 99.699 17.8421 99.3724 17.9868C99.0459 18.1314 98.6927 18.2061 98.3355 18.2061C97.9784 18.2061 97.6252 18.1314 97.2986 17.9868C96.9721 17.8421 96.6794 17.6308 96.4394 17.3663C96.1994 17.1018 96.0174 16.79 95.9051 16.4509C95.7928 16.1119 95.7527 15.7531 95.7873 15.3977ZM99.7869 15.3977C99.7869 14.2264 99.2607 13.5414 98.3373 13.5414C97.4103 13.5414 96.8889 14.2264 96.8889 15.3977C96.8889 16.5784 97.4104 17.258 98.3373 17.258C99.2607 17.258 99.7869 16.5737 99.7869 15.3977Z" fill="white"/>
<path d="M102.315 12.6983H103.341V13.5566H103.421C103.556 13.2483 103.784 12.9899 104.073 12.8173C104.362 12.6448 104.698 12.5667 105.033 12.5939C105.296 12.5742 105.56 12.6138 105.806 12.7099C106.051 12.8061 106.272 12.9562 106.452 13.1492C106.631 13.3422 106.765 13.5732 106.843 13.8249C106.922 14.0767 106.942 14.3429 106.904 14.6037V18.1017H105.837V14.8715C105.837 14.0031 105.46 13.5713 104.671 13.5713C104.493 13.563 104.315 13.5934 104.149 13.6604C103.983 13.7274 103.834 13.8294 103.711 13.9594C103.589 14.0895 103.496 14.2445 103.439 14.4139C103.382 14.5832 103.362 14.7629 103.381 14.9406V18.1018H102.315V12.6983Z" fill="white"/>
<path d="M112.929 11.3529V12.7229H114.1V13.6211H112.929V16.3996C112.929 16.9656 113.163 17.2135 113.694 17.2135C113.829 17.2131 113.965 17.2048 114.1 17.1889V18.0772C113.909 18.1114 113.715 18.1296 113.52 18.1316C112.334 18.1316 111.862 17.7145 111.862 16.6727V13.6211H111.004V12.7228H111.862V11.3529H112.929Z" fill="white"/>
<path d="M115.557 10.5889H116.614V13.5666H116.698C116.84 13.2554 117.074 12.9955 117.369 12.8223C117.664 12.6491 118.005 12.571 118.346 12.5986C118.607 12.5844 118.869 12.6281 119.112 12.7265C119.354 12.825 119.572 12.9758 119.75 13.1682C119.928 13.3606 120.061 13.5899 120.14 13.8396C120.219 14.0894 120.242 14.3535 120.207 14.6131V18.1018H119.139V14.8762C119.139 14.0131 118.737 13.576 117.984 13.576C117.801 13.5609 117.616 13.5861 117.444 13.6498C117.271 13.7135 117.115 13.8141 116.985 13.9445C116.855 14.075 116.756 14.2322 116.693 14.4052C116.631 14.5782 116.607 14.7627 116.623 14.9459V18.1017H115.557L115.557 10.5889Z" fill="white"/>
<path d="M126.425 16.6428C126.28 17.1366 125.966 17.5638 125.538 17.8496C125.11 18.1354 124.595 18.2616 124.083 18.2061C123.727 18.2155 123.374 18.1473 123.047 18.0062C122.72 17.8652 122.427 17.6547 122.19 17.3893C121.952 17.124 121.775 16.8101 121.671 16.4695C121.567 16.1289 121.539 15.7698 121.587 15.417C121.54 15.0631 121.569 14.7032 121.673 14.3616C121.777 14.02 121.953 13.7047 122.189 13.437C122.425 13.1693 122.716 12.9555 123.042 12.8101C123.368 12.6646 123.722 12.5909 124.079 12.594C125.582 12.594 126.489 13.6212 126.489 15.318V15.6901H122.674V15.7498C122.657 15.9481 122.682 16.1477 122.747 16.3358C122.812 16.5239 122.915 16.6964 123.051 16.8421C123.186 16.9879 123.351 17.1037 123.534 17.1822C123.716 17.2606 123.914 17.3 124.113 17.2978C124.368 17.3285 124.626 17.2825 124.855 17.1659C125.084 17.0492 125.273 16.8671 125.398 16.6427L126.425 16.6428ZM122.674 14.9014H125.403C125.416 14.72 125.392 14.5379 125.331 14.3666C125.269 14.1953 125.173 14.0388 125.048 13.9069C124.923 13.7751 124.771 13.6709 124.603 13.6011C124.435 13.5313 124.255 13.4974 124.073 13.5016C123.888 13.4993 123.705 13.5339 123.535 13.6034C123.364 13.673 123.208 13.776 123.078 13.9064C122.948 14.0369 122.845 14.1921 122.775 14.363C122.706 14.5339 122.671 14.7169 122.674 14.9014Z" fill="white"/>
<rect x="1.34404" y="1.09795" width="142.734" height="46.7338" rx="9.49658" stroke="#A6A6A6" stroke-width="1.26621"/>
</svg>
