<svg width="1440" height="1060" viewBox="0 0 1440 1060" fill="none" xmlns="http://www.w3.org/2000/svg">
<path d="M1169.79 1021.83H302.449C291.282 1021.83 281.458 1014.45 278.34 1003.73L268.406 969.563L1203.83 969.562L1193.9 1003.73C1190.78 1014.45 1180.95 1021.83 1169.79 1021.83Z" fill="url(#paint0_linear_3682_17310)"/>
<mask id="mask0_3682_17310" style="mask-type:alpha" maskUnits="userSpaceOnUse" x="268" y="969" width="936" height="53">
<path d="M1169.79 1021.83H302.449C291.282 1021.83 281.458 1014.45 278.34 1003.73L268.406 969.563L1203.83 969.562L1193.9 1003.73C1190.78 1014.45 1180.95 1021.83 1169.79 1021.83Z" fill="url(#paint1_linear_3682_17310)"/>
</mask>
<g mask="url(#mask0_3682_17310)">
<path d="M341.086 969.562H352.178L358.178 1028.07H347.086L341.086 969.562Z" fill="#141C2B"/>
<path d="M1097.04 969.562H1085.95L1079.95 1028.07H1091.04L1097.04 969.562Z" fill="black"/>
<path d="M1097.04 969.562H1085.95L1079.95 1028.07H1091.04L1097.04 969.562Z" fill="#141C2B"/>
</g>
<path d="M419.189 763.58H1053.15C1070.65 763.58 1086.9 772.63 1096.12 787.504L1198.36 952.518C1205.04 963.302 1197.28 977.231 1184.59 977.231H287.745C275.059 977.231 267.303 963.302 273.985 952.518L376.223 787.504C385.438 772.63 401.691 763.58 419.189 763.58Z" fill="#D9D9D9" stroke="black" stroke-width="9.9107"/>
<path d="M372.012 784.894C382.131 768.562 399.978 758.625 419.191 758.625H1053.15C1072.37 758.625 1090.21 768.562 1100.33 784.894L1202.57 949.908C1211.3 963.993 1201.17 982.187 1184.6 982.187H287.747C271.177 982.187 261.047 963.993 269.774 949.908L372.012 784.894Z" fill="url(#paint2_linear_3682_17310)"/>
<mask id="mask1_3682_17310" style="mask-type:alpha" maskUnits="userSpaceOnUse" x="266" y="758" width="940" height="225">
<path d="M372.012 784.894C382.131 768.562 399.978 758.625 419.191 758.625H1053.15C1072.37 758.625 1090.21 768.562 1100.33 784.894L1202.57 949.908C1211.3 963.993 1201.17 982.187 1184.6 982.187H287.747C271.177 982.187 261.047 963.993 269.774 949.908L372.012 784.894Z" fill="#D9D9D9"/>
</mask>
<g mask="url(#mask1_3682_17310)">
<path d="M399.293 758.625H1081.37L1048.34 1008.56H432.329L399.293 758.625Z" fill="url(#paint3_linear_3682_17310)"/>
</g>
<mask id="mask2_3682_17310" style="mask-type:alpha" maskUnits="userSpaceOnUse" x="266" y="758" width="940" height="225">
<path d="M372.012 784.894C382.131 768.562 399.978 758.625 419.191 758.625H1053.15C1072.37 758.625 1090.21 768.562 1100.33 784.894L1202.57 949.908C1211.3 963.993 1201.17 982.187 1184.6 982.187H287.747C271.177 982.187 261.047 963.993 269.774 949.908L372.012 784.894Z" fill="url(#paint4_linear_3682_17310)"/>
</mask>
<g mask="url(#mask2_3682_17310)">
<g filter="url(#filter0_f_3682_17310)">
<rect x="473.945" y="920.074" width="524.448" height="115.336" rx="57.668" fill="#D9D9D9"/>
</g>
</g>
<path fill-rule="evenodd" clip-rule="evenodd" d="M419.191 768.536H1053.15C1067.4 768.536 1080.74 775.192 1089.31 786.363L1097.16 798.593L1099.91 803.03C1101.6 806.936 1098.77 811.526 1094.29 811.526C1085.9 811.526 1080.63 820.579 1084.78 827.875L1122.55 894.379C1127.43 902.967 1137.01 907.763 1146.81 906.525C1156.21 905.337 1165.44 909.7 1170.49 917.715L1182.02 936.008L1181.59 934.857L1194.14 955.128C1198.78 962.611 1193.4 972.276 1184.6 972.276H287.747C278.944 972.276 273.563 962.611 278.199 955.128L380.437 790.114C388.749 776.698 403.409 768.536 419.191 768.536ZM372.012 784.894C382.131 768.562 399.978 758.625 419.191 758.625H1053.15C1072.37 758.625 1090.21 768.562 1100.33 784.894L1202.57 949.908C1211.3 963.993 1201.17 982.187 1184.6 982.187H287.747C271.177 982.187 261.047 963.993 269.774 949.908L372.012 784.894Z" fill="#202D46"/>
<path fill-rule="evenodd" clip-rule="evenodd" d="M419.191 768.536H1053.15C1067.4 768.536 1080.74 775.192 1089.31 786.363L1097.16 798.593L1099.91 803.03C1101.6 806.936 1098.77 811.526 1094.29 811.526C1085.9 811.526 1080.63 820.579 1084.78 827.875L1122.55 894.379C1127.43 902.967 1137.01 907.763 1146.81 906.525C1156.21 905.337 1165.44 909.7 1170.49 917.715L1182.02 936.008L1181.59 934.857L1194.14 955.128C1198.78 962.611 1193.4 972.276 1184.6 972.276H287.747C278.944 972.276 273.563 962.611 278.199 955.128L380.437 790.114C388.749 776.698 403.409 768.536 419.191 768.536ZM372.012 784.894C382.131 768.562 399.978 758.625 419.191 758.625H1053.15C1072.37 758.625 1090.21 768.562 1100.33 784.894L1202.57 949.908C1211.3 963.993 1201.17 982.187 1184.6 982.187H287.747C271.177 982.187 261.047 963.993 269.774 949.908L372.012 784.894Z" fill="url(#paint5_linear_3682_17310)"/>
<path fill-rule="evenodd" clip-rule="evenodd" d="M419.191 768.536H1053.15C1067.4 768.536 1080.74 775.192 1089.31 786.363L1097.16 798.593L1099.91 803.03C1101.6 806.936 1098.77 811.526 1094.29 811.526C1085.9 811.526 1080.63 820.579 1084.78 827.875L1122.55 894.379C1127.43 902.967 1137.01 907.763 1146.81 906.525C1156.21 905.337 1165.44 909.7 1170.49 917.715L1182.02 936.008L1181.59 934.857L1194.14 955.128C1198.78 962.611 1193.4 972.276 1184.6 972.276H287.747C278.944 972.276 273.563 962.611 278.199 955.128L380.437 790.114C388.749 776.698 403.409 768.536 419.191 768.536ZM372.012 784.894C382.131 768.562 399.978 758.625 419.191 758.625H1053.15C1072.37 758.625 1090.21 768.562 1100.33 784.894L1202.57 949.908C1211.3 963.993 1201.17 982.187 1184.6 982.187H287.747C271.177 982.187 261.047 963.993 269.774 949.908L372.012 784.894Z" fill="url(#paint6_linear_3682_17310)"/>
<rect opacity="0.54" width="9.81595" height="44.4683" rx="4.90797" transform="matrix(0.998491 -0.0549141 0.523509 0.85202 1107.66 841.359)" fill="#0E0821"/>
<rect opacity="0.1" width="8.82469" height="83.3078" rx="4.41235" transform="matrix(0.99896 0.0455929 -0.515534 0.856869 381.117 822.039)" fill="white"/>
<ellipse opacity="0.54" cx="1105.93" cy="828.514" rx="8.11621" ry="4.53564" transform="rotate(12.0575 1105.93 828.514)" fill="#0E0821"/>
<path d="M942.182 999.552C942.182 998.946 942.238 998.353 942.345 997.778C942.356 997.715 942.369 997.653 942.381 997.59C943.287 993.204 947.172 989.906 951.827 989.906H1003.05C1007.61 989.906 1011.43 993.074 1012.44 997.33C1012.48 997.503 1012.51 997.679 1012.55 997.856C1012.64 998.407 1012.69 998.973 1012.69 999.552C1012.69 1000.32 1012.6 1001.06 1012.44 1001.77C1011.43 1006.03 1007.61 1009.2 1003.05 1009.2H951.827C947.137 1009.2 943.229 1005.85 942.361 1001.41C942.244 1000.81 942.182 1000.19 942.182 999.552Z" fill="#131A29"/>
<path d="M942.182 999.552C942.182 998.946 942.238 998.353 942.345 997.778L941.84 999.552L942.361 1001.41C942.244 1000.81 942.182 1000.19 942.182 999.552Z" fill="#131A29"/>
<path d="M1012.55 997.856C1012.64 998.407 1012.69 998.973 1012.69 999.552C1012.69 1000.32 1012.6 1001.06 1012.44 1001.77L1013.1 999.712L1012.55 997.856Z" fill="#131A29"/>
<rect x="941.402" y="992.758" width="72.0693" height="19.291" rx="9.64551" fill="#1A2438"/>
<path d="M856.748 999.552C856.748 998.946 856.804 998.353 856.911 997.778C856.923 997.715 856.935 997.653 856.948 997.59C857.854 993.204 861.739 989.906 866.394 989.906H917.615C922.177 989.906 925.999 993.074 927.003 997.33C927.044 997.503 927.08 997.679 927.111 997.856C927.209 998.407 927.26 998.973 927.26 999.552C927.26 1000.32 927.171 1001.06 927.003 1001.77C925.999 1006.03 922.177 1009.2 917.615 1009.2H866.394C861.704 1009.2 857.796 1005.85 856.928 1001.41C856.81 1000.81 856.748 1000.19 856.748 999.552Z" fill="#131A29"/>
<path d="M856.748 999.552C856.748 998.946 856.804 998.353 856.911 997.778L856.406 999.552L856.928 1001.41C856.81 1000.81 856.748 1000.19 856.748 999.552Z" fill="#131A29"/>
<path d="M927.111 997.856C927.209 998.407 927.26 998.973 927.26 999.552C927.26 1000.32 927.171 1001.06 927.003 1001.77L927.667 999.712L927.111 997.856Z" fill="#131A29"/>
<rect x="855.969" y="992.758" width="72.0693" height="19.291" rx="9.64551" fill="#1A2438"/>
<defs>
<filter id="filter0_f_3682_17310" x="318.945" y="765.074" width="834.448" height="425.336" filterUnits="userSpaceOnUse" color-interpolation-filters="sRGB">
<feFlood flood-opacity="0" result="BackgroundImageFix"/>
<feBlend mode="normal" in="SourceGraphic" in2="BackgroundImageFix" result="shape"/>
<feGaussianBlur stdDeviation="77.5" result="effect1_foregroundBlur_3682_17310"/>
</filter>
<linearGradient id="paint0_linear_3682_17310" x1="243.247" y1="995.694" x2="1237.89" y2="995.694" gradientUnits="userSpaceOnUse">
<stop stop-color="#8465FF"/>
<stop offset="0.0541646" stop-color="#202D46"/>
<stop offset="0.824054"/>
<stop offset="0.925506" stop-color="#202D46"/>
<stop offset="1" stop-color="#1EA540"/>
</linearGradient>
<linearGradient id="paint1_linear_3682_17310" x1="243.247" y1="995.694" x2="1237.89" y2="995.694" gradientUnits="userSpaceOnUse">
<stop stop-color="#8465FF"/>
<stop offset="0.0541646" stop-color="#202D46"/>
<stop offset="0.824054"/>
<stop offset="0.925506" stop-color="#202D46"/>
<stop offset="1" stop-color="#1EA540"/>
</linearGradient>
<linearGradient id="paint2_linear_3682_17310" x1="736.172" y1="758.625" x2="748.575" y2="1107.58" gradientUnits="userSpaceOnUse">
<stop stop-color="#1B253A"/>
<stop offset="1" stop-color="#0C1019"/>
</linearGradient>
<linearGradient id="paint3_linear_3682_17310" x1="745.906" y1="718.262" x2="748.394" y2="1034.35" gradientUnits="userSpaceOnUse">
<stop stop-color="#202D46"/>
<stop offset="0.815116" stop-color="#06080C"/>
</linearGradient>
<linearGradient id="paint4_linear_3682_17310" x1="736.172" y1="758.625" x2="748.575" y2="1107.58" gradientUnits="userSpaceOnUse">
<stop stop-color="#1B253A"/>
<stop offset="1" stop-color="#0C1019"/>
</linearGradient>
<linearGradient id="paint5_linear_3682_17310" x1="1522.75" y1="1127.89" x2="658.064" y2="953.605" gradientUnits="userSpaceOnUse">
<stop stop-color="#F6FC27"/>
<stop offset="1" stop-opacity="0"/>
</linearGradient>
<linearGradient id="paint6_linear_3682_17310" x1="308.543" y1="913.587" x2="138.875" y2="605.895" gradientUnits="userSpaceOnUse">
<stop stop-color="#E652C9" stop-opacity="0"/>
<stop offset="1" stop-color="#E651C8"/>
</linearGradient>
</defs>
</svg>
