<svg width="1440" height="1060" viewBox="0 0 1440 1060" fill="none" xmlns="http://www.w3.org/2000/svg">
<path d="M639.642 621.357C646.855 601.42 669.711 587.724 690.693 590.767L896.359 620.587C905.966 621.98 913.514 626.64 918.182 633.196C919.164 634.575 920.018 636.038 920.737 637.571C924.069 644.675 924.506 653.304 921.29 662.194L850.587 857.614C843.374 877.55 820.518 891.246 799.536 888.204L593.87 858.383C584.179 856.978 576.582 852.248 571.924 845.599C571.257 844.647 570.65 843.655 570.105 842.628C566.224 835.303 565.535 826.185 568.939 816.777L571.244 810.406L639.642 621.357Z" fill="url(#paint0_linear_3687_18587)"/>
<path d="M639.642 621.357C646.855 601.42 669.711 587.724 690.693 590.767L896.359 620.587C905.966 621.98 913.514 626.64 918.182 633.196C919.164 634.575 920.018 636.038 920.737 637.571C924.069 644.675 924.506 653.304 921.29 662.194L850.587 857.614C843.374 877.55 820.518 891.246 799.536 888.204L593.87 858.383C584.179 856.978 576.582 852.248 571.924 845.599C571.257 844.647 570.65 843.655 570.105 842.628C566.224 835.303 565.535 826.185 568.939 816.777L571.244 810.406L639.642 621.357Z" fill="url(#paint1_radial_3687_18587)"/>
<path d="M570.105 842.628C566.224 835.303 565.535 826.185 568.939 816.777L571.244 810.406L561.253 827.901L570.105 842.628Z" fill="url(#paint2_linear_3687_18587)"/>
<path d="M570.105 842.628C566.224 835.303 565.535 826.185 568.939 816.777L571.244 810.406L561.253 827.901L570.105 842.628Z" fill="url(#paint3_radial_3687_18587)"/>
<path d="M896.359 620.587C905.966 621.98 913.514 626.64 918.182 633.196L909.802 618.964L896.359 620.587Z" fill="url(#paint4_linear_3687_18587)"/>
<path d="M896.359 620.587C905.966 621.98 913.514 626.64 918.182 633.196L909.802 618.964L896.359 620.587Z" fill="url(#paint5_radial_3687_18587)"/>
<path d="M680.354 574.395L886.021 604.215C896.323 605.709 904.166 611.017 908.56 618.351C912.955 625.685 913.937 635.105 910.395 644.894L839.693 840.314C832.592 859.939 810.052 873.445 789.398 870.451L583.731 840.63C573.429 839.137 565.586 833.828 561.191 826.494C556.797 819.161 555.815 809.741 559.357 799.952L630.059 604.531C637.16 584.906 659.7 571.4 680.354 574.395Z" fill="#8C6CE4"/>
<path d="M680.354 574.395L886.021 604.215C896.323 605.709 904.166 611.017 908.56 618.351C912.955 625.685 913.937 635.105 910.395 644.894L839.693 840.314C832.592 859.939 810.052 873.445 789.398 870.451L583.731 840.63C573.429 839.137 565.586 833.828 561.191 826.494C556.797 819.161 555.815 809.741 559.357 799.952L630.059 604.531C637.16 584.906 659.7 571.4 680.354 574.395Z" fill="url(#paint6_linear_3687_18587)"/>
<path d="M680.354 574.395L886.021 604.215C896.323 605.709 904.166 611.017 908.56 618.351C912.955 625.685 913.937 635.105 910.395 644.894L839.693 840.314C832.592 859.939 810.052 873.445 789.398 870.451L583.731 840.63C573.429 839.137 565.586 833.828 561.191 826.494C556.797 819.161 555.815 809.741 559.357 799.952L630.059 604.531C637.16 584.906 659.7 571.4 680.354 574.395Z" fill="url(#paint7_radial_3687_18587)"/>
<path d="M680.354 574.395L886.021 604.215C896.323 605.709 904.166 611.017 908.56 618.351C912.955 625.685 913.937 635.105 910.395 644.894L839.693 840.314C832.592 859.939 810.052 873.445 789.398 870.451L583.731 840.63C573.429 839.137 565.586 833.828 561.191 826.494C556.797 819.161 555.815 809.741 559.357 799.952L630.059 604.531C637.16 584.906 659.7 571.4 680.354 574.395Z" stroke="url(#paint8_linear_3687_18587)" stroke-width="1.39554"/>
<g filter="url(#filter0_f_3687_18587)">
<path d="M784.487 729.618C796.064 731.296 801.852 732.136 807.049 730.636C811.619 729.317 815.869 726.771 819.188 723.362C822.961 719.488 824.951 713.988 828.93 702.987L834.615 687.274C838.595 676.274 840.585 670.774 839.852 666.246C839.207 662.263 837.132 658.8 833.924 656.353C830.277 653.571 824.488 652.731 812.912 651.053L796.375 648.655C784.798 646.977 779.01 646.137 773.813 647.637C769.243 648.956 764.993 651.502 761.674 654.911C757.901 658.786 755.911 664.286 751.931 675.286L746.116 691.359C742.222 702.119 740.235 707.541 736.503 711.374C733.184 714.782 728.935 717.328 724.364 718.647C719.168 720.147 713.38 719.308 701.803 717.629L685.266 715.232C673.689 713.553 667.901 712.714 662.704 714.213C658.134 715.532 653.884 718.079 650.565 721.487C646.792 725.362 644.802 730.862 640.822 741.862L635.137 757.575C631.157 768.575 629.168 774.075 629.901 778.603C630.545 782.587 632.621 786.05 635.829 788.497C639.476 791.279 645.264 792.118 656.841 793.797L673.378 796.194C684.955 797.873 690.743 798.712 695.94 797.212C700.51 795.893 704.76 793.347 708.079 789.939C711.852 786.064 713.842 780.564 717.822 769.564L723.507 753.851C727.486 742.851 729.476 737.351 733.249 733.476C736.568 730.067 740.818 727.521 745.389 726.202C750.585 724.702 756.373 725.542 767.95 727.22L784.487 729.618Z" fill="url(#paint9_linear_3687_18587)"/>
</g>
<path d="M784.487 729.618C796.064 731.296 801.852 732.136 807.049 730.636C811.619 729.317 815.869 726.771 819.188 723.362C822.961 719.488 824.951 713.988 828.93 702.987L834.615 687.274C838.595 676.274 840.585 670.774 839.852 666.246C839.207 662.263 837.132 658.8 833.924 656.353C830.277 653.571 824.488 652.731 812.912 651.053L796.375 648.655C784.798 646.977 779.01 646.137 773.813 647.637C769.243 648.956 764.993 651.502 761.674 654.911C757.901 658.786 755.911 664.286 751.931 675.286L746.116 691.359C742.222 702.119 740.235 707.541 736.503 711.374C733.184 714.782 728.935 717.328 724.364 718.647C719.168 720.147 713.38 719.308 701.803 717.629L685.266 715.232C673.689 713.553 667.901 712.714 662.704 714.213C658.134 715.532 653.884 718.079 650.565 721.487C646.792 725.362 644.802 730.862 640.822 741.862L635.137 757.575C631.157 768.575 629.168 774.075 629.901 778.603C630.545 782.587 632.621 786.05 635.829 788.497C639.476 791.279 645.264 792.118 656.841 793.797L673.378 796.194C684.955 797.873 690.743 798.712 695.94 797.212C700.51 795.893 704.76 793.347 708.079 789.939C711.852 786.064 713.842 780.564 717.822 769.564L723.507 753.851C727.486 742.851 729.476 737.351 733.249 733.476C736.568 730.067 740.818 727.521 745.389 726.202C750.585 724.702 756.373 725.542 767.95 727.22L784.487 729.618Z" fill="white"/>
<defs>
<filter id="filter0_f_3687_18587" x="526.481" y="543.586" width="416.791" height="357.677" filterUnits="userSpaceOnUse" color-interpolation-filters="sRGB">
<feFlood flood-opacity="0" result="BackgroundImageFix"/>
<feBlend mode="normal" in="SourceGraphic" in2="BackgroundImageFix" result="shape"/>
<feGaussianBlur stdDeviation="51.6351" result="effect1_foregroundBlur_3687_18587"/>
</filter>
<linearGradient id="paint0_linear_3687_18587" x1="888.225" y1="504.667" x2="830.444" y2="697.671" gradientUnits="userSpaceOnUse">
<stop/>
<stop offset="1" stop-color="#1D1A24"/>
</linearGradient>
<radialGradient id="paint1_radial_3687_18587" cx="0" cy="0" r="1" gradientUnits="userSpaceOnUse" gradientTransform="translate(569.699 1037.99) rotate(-44.0708) scale(334.129 442.588)">
<stop offset="0.20883" stop-color="#E53F9C"/>
<stop offset="0.394713" stop-color="#8465FF"/>
<stop offset="1" stop-color="#8465FF" stop-opacity="0"/>
</radialGradient>
<linearGradient id="paint2_linear_3687_18587" x1="888.225" y1="504.667" x2="830.444" y2="697.671" gradientUnits="userSpaceOnUse">
<stop/>
<stop offset="1" stop-color="#1D1A24"/>
</linearGradient>
<radialGradient id="paint3_radial_3687_18587" cx="0" cy="0" r="1" gradientUnits="userSpaceOnUse" gradientTransform="translate(569.699 1037.99) rotate(-44.0708) scale(334.129 442.588)">
<stop offset="0.20883" stop-color="#E53F9C"/>
<stop offset="0.394713" stop-color="#8465FF"/>
<stop offset="1" stop-color="#8465FF" stop-opacity="0"/>
</radialGradient>
<linearGradient id="paint4_linear_3687_18587" x1="888.225" y1="504.667" x2="830.444" y2="697.671" gradientUnits="userSpaceOnUse">
<stop/>
<stop offset="1" stop-color="#1D1A24"/>
</linearGradient>
<radialGradient id="paint5_radial_3687_18587" cx="0" cy="0" r="1" gradientUnits="userSpaceOnUse" gradientTransform="translate(569.699 1037.99) rotate(-44.0708) scale(334.129 442.588)">
<stop offset="0.20883" stop-color="#E53F9C"/>
<stop offset="0.394713" stop-color="#8465FF"/>
<stop offset="1" stop-color="#8465FF" stop-opacity="0"/>
</radialGradient>
<linearGradient id="paint6_linear_3687_18587" x1="1033.55" y1="490.789" x2="620.315" y2="734.867" gradientUnits="userSpaceOnUse">
<stop/>
<stop offset="1" stop-color="#1D1A24"/>
</linearGradient>
<radialGradient id="paint7_radial_3687_18587" cx="0" cy="0" r="1" gradientUnits="userSpaceOnUse" gradientTransform="translate(611.29 1277.76) rotate(-71.916) scale(557.893 1644.34)">
<stop offset="0.20883" stop-color="#E53F9C"/>
<stop offset="0.394713" stop-color="#8465FF"/>
<stop offset="1" stop-color="#8465FF" stop-opacity="0"/>
</radialGradient>
<linearGradient id="paint8_linear_3687_18587" x1="715.097" y1="767.355" x2="667.111" y2="984.821" gradientUnits="userSpaceOnUse">
<stop stop-color="#CAB9F9" stop-opacity="0"/>
<stop offset="1" stop-color="#956DE6"/>
</linearGradient>
<linearGradient id="paint9_linear_3687_18587" x1="787.756" y1="789.736" x2="694.531" y2="684.392" gradientUnits="userSpaceOnUse">
<stop stop-color="white"/>
<stop offset="1" stop-color="white" stop-opacity="0"/>
</linearGradient>
</defs>
</svg>
