<svg width="1440" height="1060" viewBox="0 0 1440 1060" fill="none" xmlns="http://www.w3.org/2000/svg">
<g filter="url(#filter0_f_3601_15721)">
<ellipse cx="72.5563" cy="57.7298" rx="72.5563" ry="57.7298" transform="matrix(-0.237791 -0.971316 -0.971316 0.237791 463.258 667.539)" fill="#221358" fill-opacity="0.7"/>
</g>
<path d="M510.821 686.869C521.239 689.256 529.259 687.01 533.609 681.5C537.458 676.624 547.281 668.04 544.501 659L504.704 559.506C498.782 540.251 478.064 520.994 458.428 516.495L361.002 481.499C352.128 479.466 345.001 486.5 339.036 496.999C333.072 507.499 331.574 510.024 334.819 520.578L365.77 621.223C371.691 640.478 392.409 659.735 412.045 664.235L510.821 686.869Z" fill="url(#paint0_linear_3601_15721)"/>
<path d="M510.821 686.869C521.239 689.256 529.259 687.01 533.609 681.5C537.458 676.624 547.281 668.04 544.501 659L504.704 559.506C498.782 540.251 478.064 520.994 458.428 516.495L361.002 481.499C352.128 479.466 345.001 486.5 339.036 496.999C333.072 507.499 331.574 510.024 334.819 520.578L365.77 621.223C371.691 640.478 392.409 659.735 412.045 664.235L510.821 686.869Z" fill="url(#paint1_radial_3601_15721)"/>
<path d="M510.821 686.869C521.239 689.256 529.259 687.01 533.609 681.5C537.458 676.624 547.281 668.04 544.501 659L504.704 559.506C498.782 540.251 478.064 520.994 458.428 516.495L361.002 481.499C352.128 479.466 345.001 486.5 339.036 496.999C333.072 507.499 331.574 510.024 334.819 520.578L365.77 621.223C371.691 640.478 392.409 659.735 412.045 664.235L510.821 686.869Z" fill="url(#paint2_linear_3601_15721)"/>
<path d="M544.068 648.068C546.991 657.574 545.665 665.123 541.371 669.742C537.077 674.362 529.645 676.236 519.952 674.014L421.176 651.38C411.487 649.16 401.49 643.285 393.173 635.555C384.857 627.825 378.268 618.284 375.346 608.783L344.395 508.137C341.472 498.632 342.798 491.083 347.092 486.463C351.386 481.843 358.818 479.97 368.511 482.191L467.287 504.825C476.976 507.046 486.973 512.92 495.29 520.65C503.607 528.381 510.195 537.921 513.117 547.423L544.068 648.068Z" fill="url(#paint3_linear_3601_15721)"/>
<path d="M544.068 648.068C546.991 657.574 545.665 665.123 541.371 669.742C537.077 674.362 529.645 676.236 519.952 674.014L421.176 651.38C411.487 649.16 401.49 643.285 393.173 635.555C384.857 627.825 378.268 618.284 375.346 608.783L344.395 508.137C341.472 498.632 342.798 491.083 347.092 486.463C351.386 481.843 358.818 479.97 368.511 482.191L467.287 504.825C476.976 507.046 486.973 512.92 495.29 520.65C503.607 528.381 510.195 537.921 513.117 547.423L544.068 648.068Z" fill="url(#paint4_radial_3601_15721)"/>
<path d="M544.068 648.068C546.991 657.574 545.665 665.123 541.371 669.742C537.077 674.362 529.645 676.236 519.952 674.014L421.176 651.38C411.487 649.16 401.49 643.285 393.173 635.555C384.857 627.825 378.268 618.284 375.346 608.783L344.395 508.137C341.472 498.632 342.798 491.083 347.092 486.463C351.386 481.843 358.818 479.97 368.511 482.191L467.287 504.825C476.976 507.046 486.973 512.92 495.29 520.65C503.607 528.381 510.195 537.921 513.117 547.423L544.068 648.068Z" fill="url(#paint5_linear_3601_15721)"/>
<path d="M544.068 648.068C546.991 657.574 545.665 665.123 541.371 669.742C537.077 674.362 529.645 676.236 519.952 674.014L421.176 651.38C411.487 649.16 401.49 643.285 393.173 635.555C384.857 627.825 378.268 618.284 375.346 608.783L344.395 508.137C341.472 498.632 342.798 491.083 347.092 486.463C351.386 481.843 358.818 479.97 368.511 482.191L467.287 504.825C476.976 507.046 486.973 512.92 495.29 520.65C503.607 528.381 510.195 537.921 513.117 547.423L544.068 648.068Z" stroke="url(#paint6_linear_3601_15721)" stroke-width="1.21586"/>
<path d="M471.93 633.806C463.604 631.574 457.016 627.954 452.161 622.941C447.309 617.932 444.277 613.118 443.069 608.507C442.627 606.821 442.587 605.491 442.949 604.516C443.299 603.553 443.993 602.862 444.959 602.518C445.936 602.161 447.265 602.209 448.949 602.66C450.633 603.111 452.134 603.822 453.461 604.796C454.787 605.77 455.933 606.924 456.899 608.254C457.865 609.585 458.568 611.092 459.01 612.778C459.544 614.818 459.493 616.35 458.856 617.376C458.218 618.401 457.287 618.934 456.064 618.979C457.635 620.882 459.746 622.499 462.4 623.829C465.066 625.205 467.638 626.223 470.118 626.887C473.571 627.812 476.449 627.718 478.752 626.604C481.052 625.487 482.393 623.29 482.769 620.01C483.145 616.73 482.728 612.783 481.52 608.17C480.207 603.159 478.354 598.682 475.964 594.745C473.605 590.773 470.805 587.548 467.562 585.07C464.41 582.641 461.042 580.902 457.85 580.057C455.723 579.487 453.3 579.663 450.575 580.582L445.497 581.943L444.73 579.016L461.833 550.941L425.433 541.187L434.983 577.639C435.773 580.656 437.088 583.317 438.928 585.625C440.767 587.933 443.06 589.453 445.806 590.189C447.929 590.758 449.782 590.595 451.359 589.697C452.945 588.79 454.192 587.494 455.047 585.863C455.119 585.509 455.265 585.281 455.484 585.174C455.668 585.027 455.943 584.991 456.261 585.074C456.748 585.204 457.386 585.602 458.181 586.27C458.986 587.143 459.511 588.047 459.755 588.978C459.843 589.585 459.894 590.177 459.91 590.753C459.288 593.72 457.88 595.733 455.687 596.795C453.559 597.855 450.747 597.964 447.619 597.108C439.735 594.995 433.881 591.983 430.058 588.074C426.234 584.161 423.624 579.544 422.23 574.224L412.68 537.77L394.08 532.786L392.303 526L410.902 530.984L406.86 515.553L401.493 510.153L400.587 506.696L412.941 510.007L418.216 513.645L423.653 534.401L471.71 547.155L477.748 553.225L455.994 574.858C457.593 574.624 459.355 574.679 461.225 575.023C464.413 575.877 468.267 577.859 472.787 580.967C477.34 584.042 481.16 587.624 484.246 591.705C487.322 595.747 489.588 599.447 491.045 602.805C492.546 606.178 493.622 609.104 494.273 611.587C495.76 617.265 495.946 622.22 494.834 626.46C493.72 630.696 491.042 633.359 486.798 634.449C482.554 635.54 477.598 635.324 471.93 633.806Z" fill="url(#paint7_linear_3601_15721)"/>
<defs>
<filter id="filter0_f_3601_15721" x="270.454" y="478.185" width="238.953" height="265.212" filterUnits="userSpaceOnUse" color-interpolation-filters="sRGB">
<feFlood flood-opacity="0" result="BackgroundImageFix"/>
<feBlend mode="normal" in="SourceGraphic" in2="BackgroundImageFix" result="shape"/>
<feGaussianBlur stdDeviation="30.3964" result="effect1_foregroundBlur_3601_15721"/>
</filter>
<linearGradient id="paint0_linear_3601_15721" x1="419.995" y1="528.091" x2="594.873" y2="837.71" gradientUnits="userSpaceOnUse">
<stop stop-color="#221358"/>
<stop offset="1" stop-color="#7955DC"/>
</linearGradient>
<radialGradient id="paint1_radial_3601_15721" cx="0" cy="0" r="1" gradientUnits="userSpaceOnUse" gradientTransform="translate(423.043 761.045) rotate(-57.8443) scale(212.914 187.524)">
<stop stop-color="#DA3C94"/>
<stop offset="0.95658" stop-color="#DA3C94" stop-opacity="0"/>
</radialGradient>
<linearGradient id="paint2_linear_3601_15721" x1="761.406" y1="829.819" x2="460.367" y2="628.304" gradientUnits="userSpaceOnUse">
<stop stop-color="white"/>
<stop offset="1" stop-color="white" stop-opacity="0"/>
</linearGradient>
<linearGradient id="paint3_linear_3601_15721" x1="428.99" y1="515.829" x2="603.868" y2="825.449" gradientUnits="userSpaceOnUse">
<stop stop-color="#221358"/>
<stop offset="1" stop-color="#7955DC"/>
</linearGradient>
<radialGradient id="paint4_radial_3601_15721" cx="0" cy="0" r="1" gradientUnits="userSpaceOnUse" gradientTransform="translate(432.038 748.783) rotate(-57.8443) scale(212.914 187.524)">
<stop stop-color="#DA3C94"/>
<stop offset="0.95658" stop-color="#DA3C94" stop-opacity="0"/>
</radialGradient>
<linearGradient id="paint5_linear_3601_15721" x1="770.401" y1="817.557" x2="469.362" y2="616.043" gradientUnits="userSpaceOnUse">
<stop stop-color="white"/>
<stop offset="1" stop-color="white" stop-opacity="0"/>
</linearGradient>
<linearGradient id="paint6_linear_3601_15721" x1="364.294" y1="473.083" x2="562.004" y2="562.765" gradientUnits="userSpaceOnUse">
<stop stop-color="#D73B92" stop-opacity="0"/>
<stop offset="1" stop-color="#D63B92" stop-opacity="0.4"/>
</linearGradient>
<linearGradient id="paint7_linear_3601_15721" x1="401.039" y1="515.539" x2="403.29" y2="631.549" gradientUnits="userSpaceOnUse">
<stop stop-color="#8247E5"/>
<stop offset="1" stop-color="#8247E5"/>
</linearGradient>
</defs>
</svg>
