<svg width="1440" height="1060" viewBox="0 0 1440 1060" fill="none" xmlns="http://www.w3.org/2000/svg">
<g filter="url(#filter0_f_3601_15669)">
<ellipse cx="1244.55" cy="768.801" rx="56.7719" ry="45.1709" transform="rotate(-42.549 1244.55 768.801)" fill="#221358" fill-opacity="0.7"/>
</g>
<path d="M1081.86 778.303C1071.8 774.483 1066 768.308 1064.73 761.372C1064.65 760.943 1064.58 760.511 1064.54 760.077C1063.84 753.255 1067.42 745.81 1075.52 739.203L1075.83 738.95L1152.25 676.599C1169.2 662.769 1199.52 657.852 1219.97 665.617L1308.85 699.357C1309.84 699.732 1310.78 700.129 1311.69 700.548C1319.82 704.312 1324.62 709.789 1325.9 715.881C1327.44 723.15 1323.97 731.296 1315.19 738.457L1238.46 801.06C1221.51 814.89 1191.19 819.807 1170.74 812.043L1081.86 778.303Z" fill="#D9D9D9"/>
<path d="M1081.86 778.303C1071.8 774.483 1066 768.308 1064.73 761.372C1064.65 760.943 1064.58 760.511 1064.54 760.077C1063.84 753.255 1067.42 745.81 1075.52 739.203L1075.83 738.95L1152.25 676.599C1169.2 662.769 1199.52 657.852 1219.97 665.617L1308.85 699.357C1309.84 699.732 1310.78 700.129 1311.69 700.548C1319.82 704.312 1324.62 709.789 1325.9 715.881C1327.44 723.15 1323.97 731.296 1315.19 738.457L1238.46 801.06C1221.51 814.89 1191.19 819.807 1170.74 812.043L1081.86 778.303Z" fill="url(#paint0_linear_3601_15669)"/>
<path d="M1081.86 778.303C1071.8 774.483 1066 768.308 1064.73 761.372C1064.65 760.943 1064.58 760.511 1064.54 760.077C1063.84 753.255 1067.42 745.81 1075.52 739.203L1075.83 738.95L1152.25 676.599C1169.2 662.769 1199.52 657.852 1219.97 665.617L1308.85 699.357C1309.84 699.732 1310.78 700.129 1311.69 700.548C1319.82 704.312 1324.62 709.789 1325.9 715.881C1327.44 723.15 1323.97 731.296 1315.19 738.457L1238.46 801.06C1221.51 814.89 1191.19 819.807 1170.74 812.043L1081.86 778.303Z" fill="url(#paint1_radial_3601_15669)"/>
<path d="M1064.54 760.077C1063.84 753.255 1067.42 745.81 1075.52 739.203L1075.83 738.95L1060.57 746.495L1064.54 760.077Z" fill="#D9D9D9"/>
<path d="M1064.54 760.077C1063.84 753.255 1067.42 745.81 1075.52 739.203L1075.83 738.95L1060.57 746.495L1064.54 760.077Z" fill="url(#paint2_linear_3601_15669)"/>
<path d="M1064.54 760.077C1063.84 753.255 1067.42 745.81 1075.52 739.203L1075.83 738.95L1060.57 746.495L1064.54 760.077Z" fill="url(#paint3_radial_3601_15669)"/>
<path d="M1325.9 715.881L1325.67 703.435L1311.69 700.548C1319.82 704.312 1324.62 709.789 1325.9 715.881Z" fill="#D9D9D9"/>
<path d="M1325.9 715.881L1325.67 703.435L1311.69 700.548C1319.82 704.312 1324.62 709.789 1325.9 715.881Z" fill="url(#paint4_linear_3601_15669)"/>
<path d="M1325.9 715.881L1325.67 703.435L1311.69 700.548C1319.82 704.312 1324.62 709.789 1325.9 715.881Z" fill="url(#paint5_radial_3601_15669)"/>
<path d="M1071.43 726.842C1063.72 733.129 1060.64 740.146 1061.65 746.371C1062.66 752.597 1067.8 758.279 1077.1 761.808L1171.84 797.774C1181.13 801.303 1192.71 801.96 1203.91 800.143C1215.12 798.325 1225.9 794.043 1233.6 787.758L1315.19 721.191C1322.89 714.904 1325.98 707.888 1324.97 701.662C1323.96 695.437 1318.81 689.755 1309.52 686.225L1214.78 650.259C1205.48 646.731 1193.91 646.073 1182.7 647.891C1171.49 649.708 1160.72 653.991 1153.01 660.275L1071.43 726.842Z" fill="url(#paint6_linear_3601_15669)"/>
<path d="M1071.43 726.842C1063.72 733.129 1060.64 740.146 1061.65 746.371C1062.66 752.597 1067.8 758.279 1077.1 761.808L1171.84 797.774C1181.13 801.303 1192.71 801.96 1203.91 800.143C1215.12 798.325 1225.9 794.043 1233.6 787.758L1315.19 721.191C1322.89 714.904 1325.98 707.888 1324.97 701.662C1323.96 695.437 1318.81 689.755 1309.52 686.225L1214.78 650.259C1205.48 646.731 1193.91 646.073 1182.7 647.891C1171.49 649.708 1160.72 653.991 1153.01 660.275L1071.43 726.842Z" fill="url(#paint7_linear_3601_15669)"/>
<path d="M1071.43 726.842C1063.72 733.129 1060.64 740.146 1061.65 746.371C1062.66 752.597 1067.8 758.279 1077.1 761.808L1171.84 797.774C1181.13 801.303 1192.71 801.96 1203.91 800.143C1215.12 798.325 1225.9 794.043 1233.6 787.758L1315.19 721.191C1322.89 714.904 1325.98 707.888 1324.97 701.662C1323.96 695.437 1318.81 689.755 1309.52 686.225L1214.78 650.259C1205.48 646.731 1193.91 646.073 1182.7 647.891C1171.49 649.708 1160.72 653.991 1153.01 660.275L1071.43 726.842Z" fill="url(#paint8_radial_3601_15669)"/>
<path d="M1071.43 726.842C1063.72 733.129 1060.64 740.146 1061.65 746.371C1062.66 752.597 1067.8 758.279 1077.1 761.808L1171.84 797.774C1181.13 801.303 1192.71 801.96 1203.91 800.143C1215.12 798.325 1225.9 794.043 1233.6 787.758L1315.19 721.191C1322.89 714.904 1325.98 707.888 1324.97 701.662C1323.96 695.437 1318.81 689.755 1309.52 686.225L1214.78 650.259C1205.48 646.731 1193.91 646.073 1182.7 647.891C1171.49 649.708 1160.72 653.991 1153.01 660.275L1071.43 726.842Z" stroke="url(#paint9_linear_3601_15669)" stroke-width="1.21586"/>
<g opacity="0.6">
<path d="M1141.27 707.886L1119.03 725.856L1131.04 742.191L1117.98 752.698L1098.89 726.849L1134.32 698.353L1141.27 707.886ZM1163.58 689.94L1150.58 700.398L1143.62 690.857L1156.63 680.399L1176.65 679.434L1183.67 688.996L1163.58 689.94ZM1203.02 695.148L1223.05 694.183L1230.07 703.745L1209.98 704.689L1203.02 695.148Z" fill="url(#paint10_linear_3601_15669)"/>
<path d="M1133.33 725.211L1146.39 714.704L1153.35 724.246L1140.35 734.703L1133.33 725.211ZM1136.04 749.029L1142.99 758.57L1163.08 757.626L1150.08 768.084L1129.99 769.028L1123.03 759.487L1136.04 749.029ZM1249.42 709.894L1269.44 708.929L1276.46 718.491L1263.46 728.948L1243.37 729.893L1256.37 719.435L1249.42 709.894ZM1211.75 755.327L1234.14 737.405L1254.16 736.439L1218.73 764.935L1164.38 767.441L1177.45 756.935L1211.75 755.327Z" fill="url(#paint11_linear_3601_15669)"/>
<path d="M1206.7 748.533L1186.74 749.449L1199.74 738.992L1219.76 738.026L1206.7 748.533Z" fill="url(#paint12_linear_3601_15669)"/>
<path d="M1242.08 720.08L1229.09 730.61L1194.7 732.2L1172.34 750.189L1152.38 751.106L1145.36 741.614L1167.72 723.624L1155.65 707.268L1168.71 696.761L1188.79 695.814L1200.67 712.169L1235.11 710.537L1242.13 720.099L1242.08 720.08ZM1191.01 678.818L1245.35 676.242L1264.38 702.14L1244.36 703.105L1232.34 686.705L1197.97 688.359L1191.01 678.818Z" fill="url(#paint13_linear_3601_15669)"/>
</g>
<defs>
<filter id="filter0_f_3601_15669" x="1131.96" y="657.201" width="225.173" height="223.198" filterUnits="userSpaceOnUse" color-interpolation-filters="sRGB">
<feFlood flood-opacity="0" result="BackgroundImageFix"/>
<feBlend mode="normal" in="SourceGraphic" in2="BackgroundImageFix" result="shape"/>
<feGaussianBlur stdDeviation="30.3964" result="effect1_foregroundBlur_3601_15669"/>
</filter>
<linearGradient id="paint0_linear_3601_15669" x1="1206.21" y1="791.823" x2="1022.2" y2="775.189" gradientUnits="userSpaceOnUse">
<stop stop-color="#221358"/>
<stop offset="1" stop-color="#8563E1"/>
</linearGradient>
<radialGradient id="paint1_radial_3601_15669" cx="0" cy="0" r="1" gradientUnits="userSpaceOnUse" gradientTransform="translate(1013.62 791.46) rotate(-10.3048) scale(218.869 203.027)">
<stop stop-color="#00FF74"/>
<stop offset="1" stop-color="#52FFA1" stop-opacity="0"/>
</radialGradient>
<linearGradient id="paint2_linear_3601_15669" x1="1206.21" y1="791.823" x2="1022.2" y2="775.189" gradientUnits="userSpaceOnUse">
<stop stop-color="#221358"/>
<stop offset="1" stop-color="#8563E1"/>
</linearGradient>
<radialGradient id="paint3_radial_3601_15669" cx="0" cy="0" r="1" gradientUnits="userSpaceOnUse" gradientTransform="translate(1013.62 791.46) rotate(-10.3048) scale(218.869 203.027)">
<stop stop-color="#00FF74"/>
<stop offset="1" stop-color="#52FFA1" stop-opacity="0"/>
</radialGradient>
<linearGradient id="paint4_linear_3601_15669" x1="1206.21" y1="791.823" x2="1022.2" y2="775.189" gradientUnits="userSpaceOnUse">
<stop stop-color="#221358"/>
<stop offset="1" stop-color="#8563E1"/>
</linearGradient>
<radialGradient id="paint5_radial_3601_15669" cx="0" cy="0" r="1" gradientUnits="userSpaceOnUse" gradientTransform="translate(1013.62 791.46) rotate(-10.3048) scale(218.869 203.027)">
<stop stop-color="#00FF74"/>
<stop offset="1" stop-color="#52FFA1" stop-opacity="0"/>
</radialGradient>
<linearGradient id="paint6_linear_3601_15669" x1="1225.6" y1="681.567" x2="1014.85" y2="902.615" gradientUnits="userSpaceOnUse">
<stop stop-color="#221358"/>
<stop offset="1" stop-color="#7955DC"/>
</linearGradient>
<linearGradient id="paint7_linear_3601_15669" x1="774.598" y1="762.59" x2="1101.63" y2="618.588" gradientUnits="userSpaceOnUse">
<stop stop-color="white"/>
<stop offset="1" stop-color="white" stop-opacity="0"/>
</linearGradient>
<radialGradient id="paint8_radial_3601_15669" cx="0" cy="0" r="1" gradientUnits="userSpaceOnUse" gradientTransform="translate(943.374 792.109) rotate(-13.8057) scale(285.348 260.839)">
<stop stop-color="#00FF74"/>
<stop offset="1" stop-color="#52FFA1" stop-opacity="0"/>
</radialGradient>
<linearGradient id="paint9_linear_3601_15669" x1="1307.47" y1="677.695" x2="1044.33" y2="735.695" gradientUnits="userSpaceOnUse">
<stop offset="0.141982" stop-color="#52FFA1" stop-opacity="0"/>
<stop offset="1" stop-color="#52FFA1"/>
</linearGradient>
<linearGradient id="paint10_linear_3601_15669" x1="1193.44" y1="670.195" x2="1179.89" y2="775.457" gradientUnits="userSpaceOnUse">
<stop stop-color="#8247E5"/>
<stop offset="1" stop-color="#8247E5"/>
</linearGradient>
<linearGradient id="paint11_linear_3601_15669" x1="1193.44" y1="670.195" x2="1179.89" y2="775.457" gradientUnits="userSpaceOnUse">
<stop stop-color="#8247E5"/>
<stop offset="1" stop-color="#8247E5"/>
</linearGradient>
<linearGradient id="paint12_linear_3601_15669" x1="1193.44" y1="670.195" x2="1179.89" y2="775.457" gradientUnits="userSpaceOnUse">
<stop stop-color="#8247E5"/>
<stop offset="1" stop-color="#8247E5"/>
</linearGradient>
<linearGradient id="paint13_linear_3601_15669" x1="1193.44" y1="670.195" x2="1179.89" y2="775.457" gradientUnits="userSpaceOnUse">
<stop stop-color="#8247E5"/>
<stop offset="1" stop-color="#8247E5"/>
</linearGradient>
</defs>
</svg>
