<svg width="1440" height="1060" viewBox="0 0 1440 1060" fill="none" xmlns="http://www.w3.org/2000/svg">
<g clip-path="url(#clip0_3682_14901)">
<g style="mix-blend-mode:overlay" filter="url(#filter0_f_3682_14901)">
<path d="M399.568 783.983C409.202 768.433 426.194 758.972 444.487 758.972H1048.1C1066.39 758.972 1083.38 768.433 1093.02 783.983L1190.36 941.097C1193.24 945.744 1196.84 954.602 1195.9 959.304C1195.42 961.697 1197.18 969.428 1195.9 971.49C1192.45 977.072 1153.83 971.49 1146.3 971.49L277.341 974.46C269.813 974.46 278.667 965.617 275.216 960.035C273.956 957.997 277.824 959.012 277.341 956.65C276.376 951.925 299.328 945.771 302.224 941.097L399.568 783.983Z" fill="url(#paint0_linear_3682_14901)"/>
<path d="M444.487 758.972H1048.1C1066.39 758.972 1083.38 768.433 1093.02 783.983L1190.36 941.097C1193.24 945.744 1196.84 954.602 1195.9 959.304L1942.71 -34.9434H-493.383L277.341 956.65C276.376 951.925 299.328 945.771 302.224 941.097L399.568 783.983C409.202 768.433 426.194 758.972 444.487 758.972Z" fill="url(#paint1_linear_3682_14901)"/>
</g>
</g>
<defs>
<filter id="filter0_f_3682_14901" x="-553.383" y="-94.9434" width="2556.09" height="1129.4" filterUnits="userSpaceOnUse" color-interpolation-filters="sRGB">
<feFlood flood-opacity="0" result="BackgroundImageFix"/>
<feBlend mode="normal" in="SourceGraphic" in2="BackgroundImageFix" result="shape"/>
<feGaussianBlur stdDeviation="30" result="effect1_foregroundBlur_3682_14901"/>
</filter>
<linearGradient id="paint0_linear_3682_14901" x1="681.648" y1="987.984" x2="681.648" y2="512.325" gradientUnits="userSpaceOnUse">
<stop stop-color="white"/>
<stop offset="1" stop-color="white" stop-opacity="0"/>
</linearGradient>
<linearGradient id="paint1_linear_3682_14901" x1="681.648" y1="987.984" x2="681.648" y2="512.325" gradientUnits="userSpaceOnUse">
<stop stop-color="white"/>
<stop offset="1" stop-color="white" stop-opacity="0"/>
</linearGradient>
<clipPath id="clip0_3682_14901">
<rect width="1440" height="1060" fill="white"/>
</clipPath>
</defs>
</svg>
