<svg width="1440" height="1060" viewBox="0 0 1440 1060" fill="none" xmlns="http://www.w3.org/2000/svg">
<g opacity="0.2">
<path d="M95.7553 855.428C92.2073 851.88 88.4719 850.595 85.2777 851.378C85.0802 851.426 84.8848 851.483 84.6917 851.547C81.657 852.555 79.1752 855.502 77.9139 860.209L77.8656 860.389L65.9625 904.812C63.3222 914.666 67.0294 928.501 74.2427 935.715L105.589 967.06C105.937 967.409 106.287 967.735 106.638 968.04C109.794 970.78 113.041 971.773 115.878 971.154C119.262 970.416 122.063 967.382 123.43 962.28L135.381 917.676C138.022 907.823 134.314 893.987 127.101 886.774L95.7553 855.428Z" fill="url(#paint0_linear_3682_17874)"/>
<path d="M95.7553 855.428C92.2073 851.88 88.4719 850.595 85.2777 851.378C85.0802 851.426 84.8848 851.483 84.6917 851.547C81.657 852.555 79.1752 855.502 77.9139 860.209L77.8656 860.389L65.9625 904.812C63.3222 914.666 67.0294 928.501 74.2427 935.715L105.589 967.06C105.937 967.409 106.287 967.735 106.638 968.04C109.794 970.78 113.041 971.773 115.878 971.154C119.262 970.416 122.063 967.382 123.43 962.28L135.381 917.676C138.022 907.823 134.314 893.987 127.101 886.774L95.7553 855.428Z" fill="url(#paint1_radial_3682_17874)"/>
<path d="M84.6917 851.547C81.657 852.555 79.1752 855.502 77.9139 860.209L77.8656 860.389L75.6202 853.581L84.6917 851.547Z" fill="url(#paint2_linear_3682_17874)"/>
<path d="M84.6917 851.547C81.657 852.555 79.1752 855.502 77.9139 860.209L77.8656 860.389L75.6202 853.581L84.6917 851.547Z" fill="url(#paint3_radial_3682_17874)"/>
<path d="M115.878 971.154L108.262 974.233L106.638 968.04C109.794 970.78 113.041 971.773 115.878 971.154Z" fill="url(#paint4_linear_3682_17874)"/>
<path d="M115.878 971.154L108.262 974.233L106.638 968.04C109.794 970.78 113.041 971.773 115.878 971.154Z" fill="url(#paint5_radial_3682_17874)"/>
<path d="M56.4528 909.369L69.161 861.942C70.3434 857.529 72.6766 854.999 75.3649 854.278C78.0532 853.558 81.3388 854.583 84.5692 857.813L117.983 891.226C121.21 894.454 123.68 899.196 125.04 904.269C126.399 909.343 126.631 914.684 125.449 919.093L112.741 966.521C111.559 970.934 109.226 973.463 106.537 974.184C103.849 974.904 100.563 973.88 97.333 970.649L63.9197 937.236C60.6921 934.008 58.222 929.267 56.8626 924.193C55.5032 919.12 55.2714 913.778 56.4528 909.369Z" fill="#8C6CE4"/>
<path d="M56.4528 909.369L69.161 861.942C70.3434 857.529 72.6766 854.999 75.3649 854.278C78.0532 853.558 81.3388 854.583 84.5692 857.813L117.983 891.226C121.21 894.454 123.68 899.196 125.04 904.269C126.399 909.343 126.631 914.684 125.449 919.093L112.741 966.521C111.559 970.934 109.226 973.463 106.537 974.184C103.849 974.904 100.563 973.88 97.333 970.649L63.9197 937.236C60.6921 934.008 58.222 929.267 56.8626 924.193C55.5032 919.12 55.2714 913.778 56.4528 909.369Z" fill="url(#paint6_radial_3682_17874)"/>
<path d="M56.4528 909.369L69.161 861.942C70.3434 857.529 72.6766 854.999 75.3649 854.278C78.0532 853.558 81.3388 854.583 84.5692 857.813L117.983 891.226C121.21 894.454 123.68 899.196 125.04 904.269C126.399 909.343 126.631 914.684 125.449 919.093L112.741 966.521C111.559 970.934 109.226 973.463 106.537 974.184C103.849 974.904 100.563 973.88 97.333 970.649L63.9197 937.236C60.6921 934.008 58.222 929.267 56.8626 924.193C55.5032 919.12 55.2714 913.778 56.4528 909.369Z" stroke="url(#paint7_linear_3682_17874)" stroke-width="1.22064"/>
</g>
<g opacity="0.2">
<path d="M281.873 127.096C286.024 127.072 288.969 128.489 290.393 130.807C290.481 130.95 290.563 131.097 290.64 131.247C291.839 133.605 291.585 136.782 289.589 140.285L289.513 140.419L270.679 173.477C266.501 180.81 256.273 186.794 247.834 186.842L211.162 187.053C210.755 187.055 210.359 187.043 209.975 187.018C206.524 186.795 204.036 185.491 202.727 183.477C201.166 181.074 201.283 177.66 203.446 173.863L222.356 140.671C226.534 133.338 236.762 127.355 245.201 127.306L281.873 127.096Z" fill="url(#paint8_linear_3682_17874)"/>
<path d="M281.873 127.096C286.024 127.072 288.969 128.489 290.393 130.807C290.481 130.95 290.563 131.097 290.64 131.247C291.839 133.605 291.585 136.782 289.589 140.285L289.513 140.419L270.679 173.477C266.501 180.81 256.273 186.794 247.834 186.842L211.162 187.053C210.755 187.055 210.359 187.043 209.975 187.018C206.524 186.795 204.036 185.491 202.727 183.477C201.166 181.074 201.283 177.66 203.446 173.863L222.356 140.671C226.534 133.338 236.762 127.355 245.201 127.306L281.873 127.096Z" fill="url(#paint9_radial_3682_17874)"/>
<path d="M290.64 131.247C291.839 133.605 291.585 136.782 289.589 140.285L289.513 140.419L294.793 137.72L290.64 131.247Z" fill="url(#paint10_linear_3682_17874)"/>
<path d="M290.64 131.247C291.839 133.605 291.585 136.782 289.589 140.285L289.513 140.419L294.793 137.72L290.64 131.247Z" fill="url(#paint11_radial_3682_17874)"/>
<path d="M202.727 183.477L205.417 189.717L209.975 187.018C206.524 186.795 204.036 185.491 202.727 183.477Z" fill="url(#paint12_linear_3682_17874)"/>
<path d="M202.727 183.477L205.417 189.717L209.975 187.018C206.524 186.795 204.036 185.491 202.727 183.477Z" fill="url(#paint13_radial_3682_17874)"/>
<path d="M273.531 181.638L293.638 146.344C295.498 143.08 295.583 140.276 294.446 138.333C293.309 136.39 290.824 135.09 287.067 135.111L247.976 135.336C244.222 135.357 240.029 136.703 236.291 138.89C232.552 141.078 229.324 144.073 227.466 147.334L207.358 182.628C205.498 185.893 205.414 188.696 206.551 190.64C207.688 192.583 210.173 193.883 213.93 193.861L253.021 193.637C256.774 193.615 260.967 192.27 264.706 190.082C268.445 187.895 271.673 184.899 273.531 181.638Z" fill="#8C6CE4"/>
<path d="M273.531 181.638L293.638 146.344C295.498 143.08 295.583 140.276 294.446 138.333C293.309 136.39 290.824 135.09 287.067 135.111L247.976 135.336C244.222 135.357 240.029 136.703 236.291 138.89C232.552 141.078 229.324 144.073 227.466 147.334L207.358 182.628C205.498 185.893 205.414 188.696 206.551 190.64C207.688 192.583 210.173 193.883 213.93 193.861L253.021 193.637C256.774 193.615 260.967 192.27 264.706 190.082C268.445 187.895 271.673 184.899 273.531 181.638Z" fill="url(#paint14_radial_3682_17874)"/>
<path d="M273.531 181.638L293.638 146.344C295.498 143.08 295.583 140.276 294.446 138.333C293.309 136.39 290.824 135.09 287.067 135.111L247.976 135.336C244.222 135.357 240.029 136.703 236.291 138.89C232.552 141.078 229.324 144.073 227.466 147.334L207.358 182.628C205.498 185.893 205.414 188.696 206.551 190.64C207.688 192.583 210.173 193.883 213.93 193.861L253.021 193.637C256.774 193.615 260.967 192.27 264.706 190.082C268.445 187.895 271.673 184.899 273.531 181.638Z" stroke="url(#paint15_linear_3682_17874)" stroke-width="1.22064"/>
</g>
<g opacity="0.4">
<path d="M1357.98 550.292L1312.23 576.709L1307.59 579.811L1303.58 577.267C1303.49 577.228 1303.4 577.187 1303.31 577.145C1301.49 576.264 1299.94 574.766 1298.96 572.739L1276.36 525.86C1273.94 520.836 1275.95 514.47 1280.85 511.639L1326.61 485.222C1328.29 484.252 1330.09 483.823 1331.83 483.88L1336.99 484.212L1337.47 486.056C1338.44 486.884 1339.27 487.937 1339.87 489.192L1362.47 536.071C1364.9 541.094 1362.88 547.461 1357.98 550.292Z" fill="url(#paint16_linear_3682_17874)"/>
<path d="M1357.98 550.292L1312.23 576.709L1307.59 579.811L1303.58 577.267C1303.49 577.228 1303.4 577.187 1303.31 577.145C1301.49 576.264 1299.94 574.766 1298.96 572.739L1276.36 525.86C1273.94 520.836 1275.95 514.47 1280.85 511.639L1326.61 485.222C1328.29 484.252 1330.09 483.823 1331.83 483.88L1336.99 484.212L1337.47 486.056C1338.44 486.884 1339.27 487.937 1339.87 489.192L1362.47 536.071C1364.9 541.094 1362.88 547.461 1357.98 550.292Z" fill="url(#paint17_radial_3682_17874)"/>
<rect x="-0.342416" y="-0.105537" width="72.8088" height="71.7111" rx="8.74055" transform="matrix(-0.866025 0.5 -0.434288 -0.900774 1370.65 546.478)" fill="#8C6CE4"/>
<rect x="-0.342416" y="-0.105537" width="72.8088" height="71.7111" rx="8.74055" transform="matrix(-0.866025 0.5 -0.434288 -0.900774 1370.65 546.478)" fill="url(#paint18_linear_3682_17874)"/>
<rect x="-0.342416" y="-0.105537" width="72.8088" height="71.7111" rx="8.74055" transform="matrix(-0.866025 0.5 -0.434288 -0.900774 1370.65 546.478)" fill="url(#paint19_radial_3682_17874)"/>
<rect x="-0.342416" y="-0.105537" width="72.8088" height="71.7111" rx="8.74055" transform="matrix(-0.866025 0.5 -0.434288 -0.900774 1370.65 546.478)" stroke="url(#paint20_linear_3682_17874)" stroke-width="0.526667"/>
</g>
<g opacity="0.4">
<path d="M222.34 381.783L192.048 425.071L188.555 429.418L190.74 433.637C190.772 433.729 190.805 433.821 190.839 433.912C191.558 435.805 192.916 437.479 194.851 438.628L239.589 465.217C244.383 468.066 250.901 466.615 254.146 461.977L284.438 418.689C285.55 417.1 286.134 415.343 286.228 413.605L286.346 408.436L284.551 407.798C283.81 406.757 282.833 405.844 281.636 405.132L236.897 378.543C232.103 375.694 225.586 377.145 222.34 381.783Z" fill="url(#paint21_linear_3682_17874)"/>
<path d="M222.34 381.783L192.048 425.071L188.555 429.418L190.74 433.637C190.772 433.729 190.805 433.821 190.839 433.912C191.558 435.805 192.916 437.479 194.851 438.628L239.589 465.217C244.383 468.066 250.901 466.615 254.146 461.977L284.438 418.689C285.55 417.1 286.134 415.343 286.228 413.605L286.346 408.436L284.551 407.798C283.81 406.757 282.833 405.844 281.636 405.132L236.897 378.543C232.103 375.694 225.586 377.145 222.34 381.783Z" fill="url(#paint22_radial_3682_17874)"/>
<rect x="0.0753936" y="0.35029" width="72.8088" height="71.7111" rx="8.74055" transform="matrix(-0.573339 0.819318 0.859644 0.510894 227.091 368.918)" fill="#8C6CE4"/>
<rect x="0.0753936" y="0.35029" width="72.8088" height="71.7111" rx="8.74055" transform="matrix(-0.573339 0.819318 0.859644 0.510894 227.091 368.918)" fill="url(#paint23_linear_3682_17874)"/>
<rect x="0.0753936" y="0.35029" width="72.8088" height="71.7111" rx="8.74055" transform="matrix(-0.573339 0.819318 0.859644 0.510894 227.091 368.918)" fill="url(#paint24_radial_3682_17874)"/>
<rect x="0.0753936" y="0.35029" width="72.8088" height="71.7111" rx="8.74055" transform="matrix(-0.573339 0.819318 0.859644 0.510894 227.091 368.918)" stroke="url(#paint25_linear_3682_17874)" stroke-width="0.526667"/>
</g>
<g opacity="0.1">
<path d="M1103.59 211.149L1149.51 175.19L1151.78 171.226L1158.87 173.24C1158.97 173.27 1159.08 173.301 1159.18 173.334C1161.31 174.014 1163.23 175.411 1164.62 177.475L1196.58 225.215C1200 230.33 1198.79 237.6 1193.87 241.453L1147.95 277.413C1146.27 278.733 1144.36 279.48 1142.45 279.687L1135.6 279.662L1135.95 278.183C1134.76 277.428 1133.7 276.405 1132.84 275.127L1100.88 227.388C1097.45 222.273 1098.67 215.002 1103.59 211.149Z" fill="url(#paint26_linear_3682_17874)"/>
<path d="M1103.59 211.149L1149.51 175.19L1151.78 171.226L1158.87 173.24C1158.97 173.27 1159.08 173.301 1159.18 173.334C1161.31 174.014 1163.23 175.411 1164.62 177.475L1196.58 225.215C1200 230.33 1198.79 237.6 1193.87 241.453L1147.95 277.413C1146.27 278.733 1144.36 279.48 1142.45 279.687L1135.6 279.662L1135.95 278.183C1134.76 277.428 1133.7 276.405 1132.84 275.127L1100.88 227.388C1097.45 222.273 1098.67 215.002 1103.59 211.149Z" fill="url(#paint27_radial_3682_17874)"/>
<path d="M1097.63 211.826L1146.02 173.93C1149.98 170.83 1155.44 171.701 1158.23 175.878L1191.75 225.946C1194.57 230.153 1193.62 236.111 1189.63 239.232L1141.24 277.128C1137.28 280.227 1131.83 279.357 1129.03 275.179L1095.51 225.112C1092.69 220.905 1093.64 214.947 1097.63 211.826Z" fill="#8C6CE4"/>
<path d="M1097.63 211.826L1146.02 173.93C1149.98 170.83 1155.44 171.701 1158.23 175.878L1191.75 225.946C1194.57 230.153 1193.62 236.111 1189.63 239.232L1141.24 277.128C1137.28 280.227 1131.83 279.357 1129.03 275.179L1095.51 225.112C1092.69 220.905 1093.64 214.947 1097.63 211.826Z" fill="url(#paint28_radial_3682_17874)"/>
<path d="M1097.63 211.826L1146.02 173.93C1149.98 170.83 1155.44 171.701 1158.23 175.878L1191.75 225.946C1194.57 230.153 1193.62 236.111 1189.63 239.232L1141.24 277.128C1137.28 280.227 1131.83 279.357 1129.03 275.179L1095.51 225.112C1092.69 220.905 1093.64 214.947 1097.63 211.826Z" stroke="url(#paint29_linear_3682_17874)" stroke-width="1.22064"/>
</g>
<defs>
<linearGradient id="paint0_linear_3682_17874" x1="127.477" y1="953.285" x2="82.2763" y2="846.732" gradientUnits="userSpaceOnUse">
<stop stop-color="#8C6CE4"/>
<stop offset="1" stop-color="#4C3790"/>
</linearGradient>
<radialGradient id="paint1_radial_3682_17874" cx="0" cy="0" r="1" gradientUnits="userSpaceOnUse" gradientTransform="translate(80.4587 837.702) rotate(79.0615) scale(74.0416 65.4792)">
<stop stop-color="#D63B92"/>
<stop offset="1" stop-color="#D93C94" stop-opacity="0"/>
</radialGradient>
<linearGradient id="paint2_linear_3682_17874" x1="127.477" y1="953.285" x2="82.2763" y2="846.732" gradientUnits="userSpaceOnUse">
<stop stop-color="#8C6CE4"/>
<stop offset="1" stop-color="#4C3790"/>
</linearGradient>
<radialGradient id="paint3_radial_3682_17874" cx="0" cy="0" r="1" gradientUnits="userSpaceOnUse" gradientTransform="translate(80.4587 837.702) rotate(79.0615) scale(74.0416 65.4792)">
<stop stop-color="#D63B92"/>
<stop offset="1" stop-color="#D93C94" stop-opacity="0"/>
</radialGradient>
<linearGradient id="paint4_linear_3682_17874" x1="127.477" y1="953.285" x2="82.2763" y2="846.732" gradientUnits="userSpaceOnUse">
<stop stop-color="#8C6CE4"/>
<stop offset="1" stop-color="#4C3790"/>
</linearGradient>
<radialGradient id="paint5_radial_3682_17874" cx="0" cy="0" r="1" gradientUnits="userSpaceOnUse" gradientTransform="translate(80.4587 837.702) rotate(79.0615) scale(74.0416 65.4792)">
<stop stop-color="#D63B92"/>
<stop offset="1" stop-color="#D93C94" stop-opacity="0"/>
</radialGradient>
<radialGradient id="paint6_radial_3682_17874" cx="0" cy="0" r="1" gradientUnits="userSpaceOnUse" gradientTransform="translate(79.3767 828.248) rotate(83.0227) scale(72.837 64.4139)">
<stop stop-color="#D83C93"/>
<stop offset="1" stop-color="#D73B92" stop-opacity="0"/>
</radialGradient>
<linearGradient id="paint7_linear_3682_17874" x1="96.5111" y1="975.524" x2="40.6252" y2="891.112" gradientUnits="userSpaceOnUse">
<stop stop-color="#D73B92" stop-opacity="0"/>
<stop offset="1" stop-color="#D63B92" stop-opacity="0.4"/>
</linearGradient>
<linearGradient id="paint8_linear_3682_17874" x1="206.296" y1="166.217" x2="294.861" y2="129.819" gradientUnits="userSpaceOnUse">
<stop stop-color="#8C6CE4"/>
<stop offset="1" stop-color="#4C3790"/>
</linearGradient>
<radialGradient id="paint9_radial_3682_17874" cx="0" cy="0" r="1" gradientUnits="userSpaceOnUse" gradientTransform="translate(301.183 125.564) rotate(145.61) scale(61.2532 54.1696)">
<stop stop-color="#D63B92"/>
<stop offset="1" stop-color="#D93C94" stop-opacity="0"/>
</radialGradient>
<linearGradient id="paint10_linear_3682_17874" x1="206.296" y1="166.217" x2="294.861" y2="129.819" gradientUnits="userSpaceOnUse">
<stop stop-color="#8C6CE4"/>
<stop offset="1" stop-color="#4C3790"/>
</linearGradient>
<radialGradient id="paint11_radial_3682_17874" cx="0" cy="0" r="1" gradientUnits="userSpaceOnUse" gradientTransform="translate(301.183 125.564) rotate(145.61) scale(61.2532 54.1696)">
<stop stop-color="#D63B92"/>
<stop offset="1" stop-color="#D93C94" stop-opacity="0"/>
</radialGradient>
<linearGradient id="paint12_linear_3682_17874" x1="206.296" y1="166.217" x2="294.861" y2="129.819" gradientUnits="userSpaceOnUse">
<stop stop-color="#8C6CE4"/>
<stop offset="1" stop-color="#4C3790"/>
</linearGradient>
<radialGradient id="paint13_radial_3682_17874" cx="0" cy="0" r="1" gradientUnits="userSpaceOnUse" gradientTransform="translate(301.183 125.564) rotate(145.61) scale(61.2532 54.1696)">
<stop stop-color="#D63B92"/>
<stop offset="1" stop-color="#D93C94" stop-opacity="0"/>
</radialGradient>
<radialGradient id="paint14_radial_3682_17874" cx="0" cy="0" r="1" gradientUnits="userSpaceOnUse" gradientTransform="translate(307.316 120.632) rotate(141.648) scale(60.2567 53.2884)">
<stop stop-color="#D83C93"/>
<stop offset="1" stop-color="#D73B92" stop-opacity="0"/>
</radialGradient>
<linearGradient id="paint15_linear_3682_17874" x1="211.579" y1="197.312" x2="293.553" y2="180.155" gradientUnits="userSpaceOnUse">
<stop stop-color="#D73B92" stop-opacity="0"/>
<stop offset="1" stop-color="#D63B92" stop-opacity="0.4"/>
</linearGradient>
<linearGradient id="paint16_linear_3682_17874" x1="1318.84" y1="597.33" x2="1310.25" y2="548.802" gradientUnits="userSpaceOnUse">
<stop/>
<stop offset="1" stop-color="#1D1A24"/>
</linearGradient>
<radialGradient id="paint17_radial_3682_17874" cx="0" cy="0" r="1" gradientUnits="userSpaceOnUse" gradientTransform="translate(1262.26 417.724) rotate(69.8455) scale(112.445 124.122)">
<stop offset="0.20883" stop-color="#E53F9C"/>
<stop offset="0.394713" stop-color="#8465FF"/>
<stop offset="1" stop-color="#8465FF" stop-opacity="0"/>
</radialGradient>
<linearGradient id="paint18_linear_3682_17874" x1="87.7334" y1="-34.3966" x2="14.6064" y2="49.0537" gradientUnits="userSpaceOnUse">
<stop/>
<stop offset="1" stop-color="#1D1A24"/>
</linearGradient>
<radialGradient id="paint19_radial_3682_17874" cx="0" cy="0" r="1" gradientUnits="userSpaceOnUse" gradientTransform="translate(224.211 270.02) rotate(-129.729) scale(282.379 991.987)">
<stop offset="0.20883" stop-color="#E53F9C"/>
<stop offset="0.394713" stop-color="#8465FF"/>
<stop offset="1" stop-color="#8465FF" stop-opacity="0"/>
</radialGradient>
<linearGradient id="paint20_linear_3682_17874" x1="36.6677" y1="48.3783" x2="32.8213" y2="104.831" gradientUnits="userSpaceOnUse">
<stop stop-color="#CAB9F9" stop-opacity="0"/>
<stop offset="1" stop-color="#956DE6"/>
</linearGradient>
<linearGradient id="paint21_linear_3682_17874" x1="172.08" y1="416.687" x2="219.677" y2="429.466" gradientUnits="userSpaceOnUse">
<stop/>
<stop offset="1" stop-color="#1D1A24"/>
</linearGradient>
<radialGradient id="paint22_radial_3682_17874" cx="0" cy="0" r="1" gradientUnits="userSpaceOnUse" gradientTransform="translate(346.091 488.661) rotate(-154.862) scale(112.445 124.122)">
<stop offset="0.20883" stop-color="#E53F9C"/>
<stop offset="0.394713" stop-color="#8465FF"/>
<stop offset="1" stop-color="#8465FF" stop-opacity="0"/>
</radialGradient>
<linearGradient id="paint23_linear_3682_17874" x1="87.7334" y1="-34.3966" x2="14.6064" y2="49.0537" gradientUnits="userSpaceOnUse">
<stop/>
<stop offset="1" stop-color="#1D1A24"/>
</linearGradient>
<radialGradient id="paint24_radial_3682_17874" cx="0" cy="0" r="1" gradientUnits="userSpaceOnUse" gradientTransform="translate(224.211 270.02) rotate(-129.729) scale(282.379 991.987)">
<stop offset="0.20883" stop-color="#E53F9C"/>
<stop offset="0.394713" stop-color="#8465FF"/>
<stop offset="1" stop-color="#8465FF" stop-opacity="0"/>
</radialGradient>
<linearGradient id="paint25_linear_3682_17874" x1="36.6677" y1="48.3783" x2="32.8213" y2="104.831" gradientUnits="userSpaceOnUse">
<stop stop-color="#CAB9F9" stop-opacity="0"/>
<stop offset="1" stop-color="#956DE6"/>
</linearGradient>
<linearGradient id="paint26_linear_3682_17874" x1="1186.36" y1="234.484" x2="1112.75" y2="261.854" gradientUnits="userSpaceOnUse">
<stop stop-color="#8C6CE4"/>
<stop offset="1" stop-color="#4C3790"/>
</linearGradient>
<radialGradient id="paint27_radial_3682_17874" cx="0" cy="0" r="1" gradientUnits="userSpaceOnUse" gradientTransform="translate(1097.36 238.034) rotate(-19.9107) scale(49.1288 72.8734)">
<stop stop-color="#D63B92"/>
<stop offset="1" stop-color="#D93C94" stop-opacity="0"/>
</radialGradient>
<radialGradient id="paint28_radial_3682_17874" cx="0" cy="0" r="1" gradientUnits="userSpaceOnUse" gradientTransform="translate(1214.8 243.988) rotate(-164.731) scale(61.8792 57.6724)">
<stop stop-color="#D83C93"/>
<stop offset="1" stop-color="#D73B92" stop-opacity="0"/>
</radialGradient>
<linearGradient id="paint29_linear_3682_17874" x1="1093.34" y1="210.014" x2="1169.08" y2="184.62" gradientUnits="userSpaceOnUse">
<stop stop-color="#D73B92" stop-opacity="0"/>
<stop offset="1" stop-color="#D63B92" stop-opacity="0.4"/>
</linearGradient>
</defs>
</svg>
