<svg width="1440" height="1060" viewBox="0 0 1440 1060" fill="none" xmlns="http://www.w3.org/2000/svg">
<g filter="url(#filter0_f_3601_16111)">
<ellipse cx="56.7719" cy="45.1709" rx="56.7719" ry="45.1709" transform="matrix(-0.736699 -0.676221 -0.676221 0.736699 323.168 775.434)" fill="#221358" fill-opacity="0.7"/>
</g>
<path d="M413.486 779.823C423.546 776.004 429.344 769.828 430.622 762.892C430.701 762.464 430.763 762.032 430.808 761.598C431.505 754.776 427.924 747.33 419.827 740.723L419.517 740.47L343.099 678.12C326.149 664.29 295.828 659.373 275.376 667.137L186.499 700.878C185.512 701.252 184.566 701.65 183.661 702.068C178.264 704.565 172.408 699.316 170 703C168.778 704.869 169.255 714.5 169.443 717.402C170 726 171.382 732.817 180.158 739.978L256.886 802.581C273.836 816.411 304.157 821.328 324.609 813.564L413.486 779.823Z" fill="url(#paint0_linear_3601_16111)"/>
<path d="M413.486 779.823C423.546 776.004 429.344 769.828 430.622 762.892C430.701 762.464 430.763 762.032 430.808 761.598C431.505 754.776 427.924 747.33 419.827 740.723L419.517 740.47L343.099 678.12C326.149 664.29 295.828 659.373 275.376 667.137L186.499 700.878C185.512 701.252 184.566 701.65 183.661 702.068C178.264 704.565 172.408 699.316 170 703C168.778 704.869 169.255 714.5 169.443 717.402C170 726 171.382 732.817 180.158 739.978L256.886 802.581C273.836 816.411 304.157 821.328 324.609 813.564L413.486 779.823Z" fill="url(#paint1_radial_3601_16111)"/>
<path d="M430.808 761.598C431.505 754.776 427.924 747.33 419.827 740.723L419.517 740.47L434.776 748.015L430.808 761.598Z" fill="url(#paint2_linear_3601_16111)"/>
<path d="M430.808 761.598C431.505 754.776 427.924 747.33 419.827 740.723L419.517 740.47L434.776 748.015L430.808 761.598Z" fill="url(#paint3_radial_3601_16111)"/>
<path d="M423.92 728.363C431.625 734.65 434.71 741.666 433.7 747.892C432.691 754.118 427.547 759.799 418.249 763.329L323.511 799.295C314.217 802.823 302.641 803.481 291.433 801.663C280.225 799.846 269.45 795.563 261.748 789.279L180.162 722.712C172.457 716.425 169.372 709.408 170.382 703.183C171.391 696.957 176.535 691.275 185.833 687.746L280.571 651.78C289.865 648.252 301.441 647.594 312.649 649.411C323.857 651.229 334.632 655.512 342.334 661.796L423.92 728.363Z" fill="#8C6CE4"/>
<path d="M423.92 728.363C431.625 734.65 434.71 741.666 433.7 747.892C432.691 754.118 427.547 759.799 418.249 763.329L323.511 799.295C314.217 802.823 302.641 803.481 291.433 801.663C280.225 799.846 269.45 795.563 261.748 789.279L180.162 722.712C172.457 716.425 169.372 709.408 170.382 703.183C171.391 696.957 176.535 691.275 185.833 687.746L280.571 651.78C289.865 648.252 301.441 647.594 312.649 649.411C323.857 651.229 334.632 655.512 342.334 661.796L423.92 728.363Z" fill="url(#paint4_radial_3601_16111)"/>
<path d="M423.92 728.363C431.625 734.65 434.71 741.666 433.7 747.892C432.691 754.118 427.547 759.799 418.249 763.329L323.511 799.295C314.217 802.823 302.641 803.481 291.433 801.663C280.225 799.846 269.45 795.563 261.748 789.279L180.162 722.712C172.457 716.425 169.372 709.408 170.382 703.183C171.391 696.957 176.535 691.275 185.833 687.746L280.571 651.78C289.865 648.252 301.441 647.594 312.649 649.411C323.857 651.229 334.632 655.512 342.334 661.796L423.92 728.363Z" fill="url(#paint5_linear_3601_16111)"/>
<path d="M423.92 728.363C431.625 734.65 434.71 741.666 433.7 747.892C432.691 754.118 427.547 759.799 418.249 763.329L323.511 799.295C314.217 802.823 302.641 803.481 291.433 801.663C280.225 799.846 269.45 795.563 261.748 789.279L180.162 722.712C172.457 716.425 169.372 709.408 170.382 703.183C171.391 696.957 176.535 691.275 185.833 687.746L280.571 651.78C289.865 648.252 301.441 647.594 312.649 649.411C323.857 651.229 334.632 655.512 342.334 661.796L423.92 728.363Z" stroke="url(#paint6_linear_3601_16111)" stroke-width="1.21586"/>
<g opacity="0.5">
<path fill-rule="evenodd" clip-rule="evenodd" d="M373.237 730.628C373.352 729.919 372.983 729.165 372.202 728.527L299.914 669.452C298.595 668.374 296.008 668.569 295.834 669.758L292.893 687.99C292.778 688.7 293.147 689.453 293.928 690.091L366.216 749.166C367.535 750.244 370.122 750.049 370.295 748.86L373.237 730.628ZM308.859 755.14C308.974 754.431 308.605 753.677 307.824 753.039L235.536 693.964C234.217 692.886 231.63 693.081 231.456 694.27L228.494 712.51C228.379 713.219 228.748 713.973 229.529 714.611L301.817 773.686C303.136 774.764 305.723 774.569 305.896 773.38L308.859 755.14ZM283.257 694.152C282.476 693.514 281.352 693.048 280.126 692.849L248.617 687.735C246.57 687.392 245.301 688.665 246.62 689.743L318.908 748.818C319.689 749.456 320.812 749.922 322.038 750.121L353.547 755.235C355.595 755.578 356.863 754.305 355.544 753.227L283.257 694.152Z" fill="#221358"/>
<path fill-rule="evenodd" clip-rule="evenodd" d="M373.237 730.628C373.352 729.919 372.983 729.165 372.202 728.527L299.914 669.452C298.595 668.374 296.008 668.569 295.834 669.758L292.893 687.99C292.778 688.7 293.147 689.453 293.928 690.091L366.216 749.166C367.535 750.244 370.122 750.049 370.295 748.86L373.237 730.628ZM308.859 755.14C308.974 754.431 308.605 753.677 307.824 753.039L235.536 693.964C234.217 692.886 231.63 693.081 231.456 694.27L228.494 712.51C228.379 713.219 228.748 713.973 229.529 714.611L301.817 773.686C303.136 774.764 305.723 774.569 305.896 773.38L308.859 755.14ZM283.257 694.152C282.476 693.514 281.352 693.048 280.126 692.849L248.617 687.735C246.57 687.392 245.301 688.665 246.62 689.743L318.908 748.818C319.689 749.456 320.812 749.922 322.038 750.121L353.547 755.235C355.595 755.578 356.863 754.305 355.544 753.227L283.257 694.152Z" fill="url(#paint7_radial_3601_16111)"/>
</g>
<defs>
<filter id="filter0_f_3601_16111" x="138.212" y="658.722" width="225.173" height="223.198" filterUnits="userSpaceOnUse" color-interpolation-filters="sRGB">
<feFlood flood-opacity="0" result="BackgroundImageFix"/>
<feBlend mode="normal" in="SourceGraphic" in2="BackgroundImageFix" result="shape"/>
<feGaussianBlur stdDeviation="30.3964" result="effect1_foregroundBlur_3601_16111"/>
</filter>
<linearGradient id="paint0_linear_3601_16111" x1="194.192" y1="755.805" x2="442.349" y2="761.108" gradientUnits="userSpaceOnUse">
<stop stop-color="#8C6CE4"/>
<stop offset="1" stop-color="#4C3790"/>
</linearGradient>
<radialGradient id="paint1_radial_3601_16111" cx="0" cy="0" r="1" gradientUnits="userSpaceOnUse" gradientTransform="translate(461.61 765.495) rotate(-166.727) scale(158.783 140.421)">
<stop stop-color="#D63B92"/>
<stop offset="1" stop-color="#D93C94" stop-opacity="0"/>
</radialGradient>
<linearGradient id="paint2_linear_3601_16111" x1="194.192" y1="755.805" x2="442.349" y2="761.108" gradientUnits="userSpaceOnUse">
<stop stop-color="#8C6CE4"/>
<stop offset="1" stop-color="#4C3790"/>
</linearGradient>
<radialGradient id="paint3_radial_3601_16111" cx="0" cy="0" r="1" gradientUnits="userSpaceOnUse" gradientTransform="translate(461.61 765.495) rotate(-166.727) scale(158.783 140.421)">
<stop stop-color="#D63B92"/>
<stop offset="1" stop-color="#D93C94" stop-opacity="0"/>
</radialGradient>
<radialGradient id="paint4_radial_3601_16111" cx="0" cy="0" r="1" gradientUnits="userSpaceOnUse" gradientTransform="translate(431.864 764.723) rotate(-167.128) scale(175.893 155.552)">
<stop stop-color="#D83C93"/>
<stop offset="1" stop-color="#D73B92" stop-opacity="0"/>
</radialGradient>
<linearGradient id="paint5_linear_3601_16111" x1="520.389" y1="782.149" x2="321.731" y2="754.965" gradientUnits="userSpaceOnUse">
<stop stop-color="white"/>
<stop offset="1" stop-color="white" stop-opacity="0"/>
</linearGradient>
<linearGradient id="paint6_linear_3601_16111" x1="177.271" y1="682.507" x2="391.52" y2="647.439" gradientUnits="userSpaceOnUse">
<stop stop-color="#D73B92" stop-opacity="0"/>
<stop offset="1" stop-color="#D63B92" stop-opacity="0.4"/>
</linearGradient>
<radialGradient id="paint7_radial_3601_16111" cx="0" cy="0" r="1" gradientUnits="userSpaceOnUse" gradientTransform="translate(422.977 735.614) rotate(-172.473) scale(105.636 123.099)">
<stop stop-color="#D83C94"/>
<stop offset="1" stop-color="#D73B93" stop-opacity="0"/>
</radialGradient>
</defs>
</svg>
