<svg width="1440" height="1060" viewBox="0 0 1440 1060" fill="none" xmlns="http://www.w3.org/2000/svg">
<g filter="url(#filter0_f_3601_15279)">
<ellipse cx="1190.27" cy="670.232" rx="82.7557" ry="65.8451" transform="rotate(-61.5488 1190.27 670.232)" fill="#221358" fill-opacity="0.7"/>
</g>
<path d="M1059.22 718.7C1048.46 718.364 1040.97 714.413 1037.5 708.271C1037.29 707.891 1037.09 707.503 1036.9 707.107C1034.02 700.884 1034.99 692.678 1040.49 683.795L1040.7 683.455L1092.66 599.623C1104.18 581.028 1131.25 566.507 1153.12 567.19L1248.13 570.157C1249.19 570.19 1250.21 570.258 1251.21 570.359C1260.12 571.269 1266.44 574.885 1269.64 580.228C1273.46 586.602 1272.83 595.435 1266.86 605.063L1214.69 689.235C1203.17 707.83 1176.1 722.35 1154.24 721.668L1059.22 718.7Z" fill="#D9D9D9"/>
<path d="M1059.22 718.7C1048.46 718.364 1040.97 714.413 1037.5 708.271C1037.29 707.891 1037.09 707.503 1036.9 707.107C1034.02 700.884 1034.99 692.678 1040.49 683.795L1040.7 683.455L1092.66 599.623C1104.18 581.028 1131.25 566.507 1153.12 567.19L1248.13 570.157C1249.19 570.19 1250.21 570.258 1251.21 570.359C1260.12 571.269 1266.44 574.885 1269.64 580.228C1273.46 586.602 1272.83 595.435 1266.86 605.063L1214.69 689.235C1203.17 707.83 1176.1 722.35 1154.24 721.668L1059.22 718.7Z" fill="url(#paint0_linear_3601_15279)"/>
<path d="M1059.22 718.7C1048.46 718.364 1040.97 714.413 1037.5 708.271C1037.29 707.891 1037.09 707.503 1036.9 707.107C1034.02 700.884 1034.99 692.678 1040.49 683.795L1040.7 683.455L1092.66 599.623C1104.18 581.028 1131.25 566.507 1153.12 567.19L1248.13 570.157C1249.19 570.19 1250.21 570.258 1251.21 570.359C1260.12 571.269 1266.44 574.885 1269.64 580.228C1273.46 586.602 1272.83 595.435 1266.86 605.063L1214.69 689.235C1203.17 707.83 1176.1 722.35 1154.24 721.668L1059.22 718.7Z" fill="url(#paint1_radial_3601_15279)"/>
<path d="M1036.9 707.107C1034.02 700.884 1034.99 692.678 1040.49 683.795L1040.7 683.455L1030.02 696.47L1036.9 707.107Z" fill="#D9D9D9"/>
<path d="M1036.9 707.107C1034.02 700.884 1034.99 692.678 1040.49 683.795L1040.7 683.455L1030.02 696.47L1036.9 707.107Z" fill="url(#paint2_linear_3601_15279)"/>
<path d="M1036.9 707.107C1034.02 700.884 1034.99 692.678 1040.49 683.795L1040.7 683.455L1030.02 696.47L1036.9 707.107Z" fill="url(#paint3_radial_3601_15279)"/>
<path d="M1269.64 580.228L1265.06 567.462L1251.21 570.359C1260.12 571.269 1266.44 574.885 1269.64 580.228Z" fill="#D9D9D9"/>
<path d="M1269.64 580.228L1265.06 567.462L1251.21 570.359C1260.12 571.269 1266.44 574.885 1269.64 580.228Z" fill="url(#paint4_linear_3601_15279)"/>
<path d="M1269.64 580.228L1265.06 567.462L1251.21 570.359C1260.12 571.269 1266.44 574.885 1269.64 580.228Z" fill="url(#paint5_radial_3601_15279)"/>
<path d="M1032.6 673.443C1027.36 681.896 1026.72 689.534 1029.71 695.092C1032.69 700.65 1039.4 704.347 1049.34 704.657L1150.63 707.821C1160.56 708.131 1171.72 704.984 1181.73 699.617C1191.73 694.249 1200.53 686.692 1205.76 678.242L1261.23 588.74C1266.47 580.287 1267.1 572.649 1264.12 567.091C1261.14 561.533 1254.43 557.836 1244.49 557.525L1143.2 554.362C1133.27 554.052 1122.11 557.199 1112.1 562.566C1102.09 567.934 1093.3 575.491 1088.06 583.941L1032.6 673.443Z" fill="url(#paint6_linear_3601_15279)"/>
<path d="M1032.6 673.443C1027.36 681.896 1026.72 689.534 1029.71 695.092C1032.69 700.65 1039.4 704.347 1049.34 704.657L1150.63 707.821C1160.56 708.131 1171.72 704.984 1181.73 699.617C1191.73 694.249 1200.53 686.692 1205.76 678.242L1261.23 588.74C1266.47 580.287 1267.1 572.649 1264.12 567.091C1261.14 561.533 1254.43 557.836 1244.49 557.525L1143.2 554.362C1133.27 554.052 1122.11 557.199 1112.1 562.566C1102.09 567.934 1093.3 575.491 1088.06 583.941L1032.6 673.443Z" fill="url(#paint7_linear_3601_15279)"/>
<path d="M1032.6 673.443C1027.36 681.896 1026.72 689.534 1029.71 695.092C1032.69 700.65 1039.4 704.347 1049.34 704.657L1150.63 707.821C1160.56 708.131 1171.72 704.984 1181.73 699.617C1191.73 694.249 1200.53 686.692 1205.76 678.242L1261.23 588.74C1266.47 580.287 1267.1 572.649 1264.12 567.091C1261.14 561.533 1254.43 557.836 1244.49 557.525L1143.2 554.362C1133.27 554.052 1122.11 557.199 1112.1 562.566C1102.09 567.934 1093.3 575.491 1088.06 583.941L1032.6 673.443Z" fill="url(#paint8_radial_3601_15279)"/>
<path d="M1032.6 673.443C1027.36 681.896 1026.72 689.534 1029.71 695.092C1032.69 700.65 1039.4 704.347 1049.34 704.657L1150.63 707.821C1160.56 708.131 1171.72 704.984 1181.73 699.617C1191.73 694.249 1200.53 686.692 1205.76 678.242L1261.23 588.74C1266.47 580.287 1267.1 572.649 1264.12 567.091C1261.14 561.533 1254.43 557.836 1244.49 557.525L1143.2 554.362C1133.27 554.052 1122.11 557.199 1112.1 562.566C1102.09 567.934 1093.3 575.491 1088.06 583.941L1032.6 673.443Z" stroke="url(#paint9_linear_3601_15279)" stroke-width="1.21586"/>
<g opacity="0.6">
<path d="M1170.97 682.087L1152.23 681.916L1159.35 640.657L1113.79 681.565L1092.85 681.374L1163.25 618.049L1167.15 595.85L1072.19 681.23L1051.25 681.039L1171.6 572.791L1189.94 572.959L1185.29 600.071L1204.23 600.244L1181.7 620.541L1170.97 682.087Z" fill="#221358"/>
<path d="M1170.97 682.087L1152.23 681.916L1159.35 640.657L1113.79 681.565L1092.85 681.374L1163.25 618.049L1167.15 595.85L1072.19 681.23L1051.25 681.039L1171.6 572.791L1189.94 572.959L1185.29 600.071L1204.23 600.244L1181.7 620.541L1170.97 682.087Z" fill="url(#paint10_radial_3601_15279)"/>
</g>
<defs>
<filter id="filter0_f_3601_15279" x="1059.43" y="530.184" width="261.684" height="280.096" filterUnits="userSpaceOnUse" color-interpolation-filters="sRGB">
<feFlood flood-opacity="0" result="BackgroundImageFix"/>
<feBlend mode="normal" in="SourceGraphic" in2="BackgroundImageFix" result="shape"/>
<feGaussianBlur stdDeviation="30.3964" result="effect1_foregroundBlur_3601_15279"/>
</filter>
<linearGradient id="paint0_linear_3601_15279" x1="1318.79" y1="574.421" x2="1064.96" y2="676.626" gradientUnits="userSpaceOnUse">
<stop stop-color="#221358"/>
<stop offset="1" stop-color="#8563E1"/>
</linearGradient>
<radialGradient id="paint1_radial_3601_15279" cx="0" cy="0" r="1" gradientUnits="userSpaceOnUse" gradientTransform="translate(998.894 753.435) rotate(-29.3298) scale(219.268 203.049)">
<stop stop-color="#00FF74"/>
<stop offset="1" stop-color="#52FFA1" stop-opacity="0"/>
</radialGradient>
<linearGradient id="paint2_linear_3601_15279" x1="1318.79" y1="574.421" x2="1064.96" y2="676.626" gradientUnits="userSpaceOnUse">
<stop stop-color="#221358"/>
<stop offset="1" stop-color="#8563E1"/>
</linearGradient>
<radialGradient id="paint3_radial_3601_15279" cx="0" cy="0" r="1" gradientUnits="userSpaceOnUse" gradientTransform="translate(998.894 753.435) rotate(-29.3298) scale(219.268 203.049)">
<stop stop-color="#00FF74"/>
<stop offset="1" stop-color="#52FFA1" stop-opacity="0"/>
</radialGradient>
<linearGradient id="paint4_linear_3601_15279" x1="1318.79" y1="574.421" x2="1064.96" y2="676.626" gradientUnits="userSpaceOnUse">
<stop stop-color="#221358"/>
<stop offset="1" stop-color="#8563E1"/>
</linearGradient>
<radialGradient id="paint5_radial_3601_15279" cx="0" cy="0" r="1" gradientUnits="userSpaceOnUse" gradientTransform="translate(998.894 753.435) rotate(-29.3298) scale(219.268 203.049)">
<stop stop-color="#00FF74"/>
<stop offset="1" stop-color="#52FFA1" stop-opacity="0"/>
</radialGradient>
<linearGradient id="paint6_linear_3601_15279" x1="1353.77" y1="524.239" x2="1012.69" y2="629.481" gradientUnits="userSpaceOnUse">
<stop stop-color="#221358"/>
<stop offset="1" stop-color="#7955DC"/>
</linearGradient>
<linearGradient id="paint7_linear_3601_15279" x1="750.494" y1="727.487" x2="1089.23" y2="770.654" gradientUnits="userSpaceOnUse">
<stop stop-color="white"/>
<stop offset="1" stop-color="white" stop-opacity="0"/>
</linearGradient>
<radialGradient id="paint8_radial_3601_15279" cx="0" cy="0" r="1" gradientUnits="userSpaceOnUse" gradientTransform="translate(886.059 741.449) rotate(-21.7296) scale(307.054 238.963)">
<stop stop-color="#00FF74"/>
<stop offset="1" stop-color="#52FFA1" stop-opacity="0"/>
</radialGradient>
<linearGradient id="paint9_linear_3601_15279" x1="1274.25" y1="562.847" x2="1055.92" y2="498.052" gradientUnits="userSpaceOnUse">
<stop offset="0.141982" stop-color="#52FFA1" stop-opacity="0"/>
<stop offset="1" stop-color="#52FFA1"/>
</linearGradient>
<radialGradient id="paint10_radial_3601_15279" cx="0" cy="0" r="1" gradientUnits="userSpaceOnUse" gradientTransform="translate(1038.68 620.239) rotate(2.73193) scale(85.2487 132.457)">
<stop stop-color="#D83C94"/>
<stop offset="1" stop-color="#D73B93" stop-opacity="0"/>
</radialGradient>
</defs>
</svg>
