<svg width="1440" height="1060" viewBox="0 0 1440 1060" fill="none" xmlns="http://www.w3.org/2000/svg">
<g filter="url(#filter0_f_3601_15695)">
<ellipse cx="1105.42" cy="609.269" rx="72.5563" ry="57.7298" transform="rotate(-76.2438 1105.42 609.269)" fill="#221358" fill-opacity="0.7"/>
</g>
<path d="M988.52 683.572C978.031 685.976 969.781 684.054 964.869 678.993C964.566 678.68 964.275 678.355 963.997 678.019C959.632 672.73 958.481 664.548 961.553 654.559L961.67 654.177L990.66 559.907C997.09 538.997 1019.59 518.085 1040.91 513.198L1133.58 491.965C1134.61 491.729 1135.61 491.535 1136.6 491.381C1145.46 489.999 1152.49 491.893 1156.93 496.25C1162.24 501.448 1163.87 510.152 1160.54 520.978L1131.44 615.63C1125.01 636.54 1102.51 657.453 1081.18 662.339L988.52 683.572Z" fill="url(#paint0_linear_3601_15695)"/>
<path d="M988.52 683.572C978.031 685.976 969.781 684.054 964.869 678.993C964.566 678.68 964.275 678.355 963.997 678.019C959.632 672.73 958.481 664.548 961.553 654.559L961.67 654.177L990.66 559.907C997.09 538.997 1019.59 518.085 1040.91 513.198L1133.58 491.965C1134.61 491.729 1135.61 491.535 1136.6 491.381C1145.46 489.999 1152.49 491.893 1156.93 496.25C1162.24 501.448 1163.87 510.152 1160.54 520.978L1131.44 615.63C1125.01 636.54 1102.51 657.453 1081.18 662.339L988.52 683.572Z" fill="url(#paint1_radial_3601_15695)"/>
<path d="M963.997 678.019C959.632 672.73 958.481 664.548 961.553 654.559L961.67 654.177L953.705 668.595L963.997 678.019Z" fill="url(#paint2_linear_3601_15695)"/>
<path d="M963.997 678.019C959.632 672.73 958.481 664.548 961.553 654.559L961.67 654.177L953.705 668.595L963.997 678.019Z" fill="url(#paint3_radial_3601_15695)"/>
<path d="M1156.93 496.25L1150.09 486.136L1136.6 491.381C1145.46 489.999 1152.49 491.893 1156.93 496.25Z" fill="url(#paint4_linear_3601_15695)"/>
<path d="M1156.93 496.25L1150.09 486.136L1136.6 491.381C1145.46 489.999 1152.49 491.893 1156.93 496.25Z" fill="url(#paint5_radial_3601_15695)"/>
<path d="M951.288 646.546C948.365 656.051 949.69 663.6 953.984 668.22C958.278 672.84 965.71 674.713 975.404 672.492L1074.18 649.858C1083.87 647.637 1093.87 641.763 1102.18 634.033C1110.5 626.302 1117.09 616.762 1120.01 607.26L1150.96 506.615C1153.88 497.109 1152.56 489.56 1148.26 484.941C1143.97 480.321 1136.54 478.447 1126.84 480.669L1028.07 503.303C1018.38 505.523 1008.38 511.398 1000.07 519.128C991.749 526.858 985.16 536.399 982.238 545.901L951.288 646.546Z" fill="#8C6CE4"/>
<path d="M951.288 646.546C948.365 656.051 949.69 663.6 953.984 668.22C958.278 672.84 965.71 674.713 975.404 672.492L1074.18 649.858C1083.87 647.637 1093.87 641.763 1102.18 634.033C1110.5 626.302 1117.09 616.762 1120.01 607.26L1150.96 506.615C1153.88 497.109 1152.56 489.56 1148.26 484.941C1143.97 480.321 1136.54 478.447 1126.84 480.669L1028.07 503.303C1018.38 505.523 1008.38 511.398 1000.07 519.128C991.749 526.858 985.16 536.399 982.238 545.901L951.288 646.546Z" fill="url(#paint6_radial_3601_15695)"/>
<path d="M951.288 646.546C948.365 656.051 949.69 663.6 953.984 668.22C958.278 672.84 965.71 674.713 975.404 672.492L1074.18 649.858C1083.87 647.637 1093.87 641.763 1102.18 634.033C1110.5 626.302 1117.09 616.762 1120.01 607.26L1150.96 506.615C1153.88 497.109 1152.56 489.56 1148.26 484.941C1143.97 480.321 1136.54 478.447 1126.84 480.669L1028.07 503.303C1018.38 505.523 1008.38 511.398 1000.07 519.128C991.749 526.858 985.16 536.399 982.238 545.901L951.288 646.546Z" fill="url(#paint7_linear_3601_15695)"/>
<path d="M951.288 646.546C948.365 656.051 949.69 663.6 953.984 668.22C958.278 672.84 965.71 674.713 975.404 672.492L1074.18 649.858C1083.87 647.637 1093.87 641.763 1102.18 634.033C1110.5 626.302 1117.09 616.762 1120.01 607.26L1150.96 506.615C1153.88 497.109 1152.56 489.56 1148.26 484.941C1143.97 480.321 1136.54 478.447 1126.84 480.669L1028.07 503.303C1018.38 505.523 1008.38 511.398 1000.07 519.128C991.749 526.858 985.16 536.399 982.238 545.901L951.288 646.546Z" stroke="url(#paint8_linear_3601_15695)" stroke-width="1.21586"/>
<path d="M1053.52 543.108C1065.17 540.94 1076.34 533.873 1078.46 527.322C1080.58 520.771 1072.85 517.217 1061.2 519.385C1049.54 521.553 1038.37 528.621 1036.25 535.172C1034.13 541.723 1041.86 545.276 1053.52 543.108Z" fill="url(#paint9_linear_3601_15695)"/>
<path d="M1024.58 632.483C1036.23 630.315 1047.4 623.247 1049.52 616.696C1051.64 610.145 1043.92 606.592 1032.26 608.76C1020.6 610.928 1009.43 617.995 1007.31 624.546C1005.19 631.097 1012.92 634.651 1024.58 632.483Z" fill="url(#paint10_linear_3601_15695)"/>
<path d="M1018.79 564.997C1027.78 554.159 1031.16 543.601 1026.35 541.416C1021.53 539.231 1010.35 546.246 1001.36 557.084C992.372 567.922 988.99 578.48 993.803 580.665C998.616 582.85 1009.8 575.835 1018.79 564.997Z" fill="url(#paint11_linear_3601_15695)"/>
<path d="M1084.41 594.784C1093.4 583.946 1096.78 573.39 1091.97 571.206C1087.16 569.023 1075.98 576.038 1066.99 586.877C1058 597.715 1054.62 608.271 1059.43 610.455C1064.24 612.639 1075.42 605.623 1084.41 594.784Z" fill="url(#paint12_linear_3601_15695)"/>
<path d="M1000.44 621.423C1007.38 617.052 1010.84 606.481 1008.17 597.81C1005.5 589.14 997.711 585.654 990.775 590.024C983.839 594.394 980.381 604.966 983.05 613.637C985.72 622.307 993.507 625.793 1000.44 621.423Z" fill="url(#paint13_linear_3601_15695)"/>
<path d="M1095.01 561.846C1101.94 557.478 1105.39 546.909 1102.72 538.239C1100.05 529.568 1092.27 526.08 1085.34 530.447C1078.41 534.815 1074.95 545.384 1077.62 554.054C1080.29 562.725 1088.07 566.213 1095.01 561.846Z" fill="url(#paint14_linear_3601_15695)"/>
<defs>
<filter id="filter0_f_3601_15695" x="985.948" y="476.663" width="238.953" height="265.212" filterUnits="userSpaceOnUse" color-interpolation-filters="sRGB">
<feFlood flood-opacity="0" result="BackgroundImageFix"/>
<feBlend mode="normal" in="SourceGraphic" in2="BackgroundImageFix" result="shape"/>
<feGaussianBlur stdDeviation="30.3964" result="effect1_foregroundBlur_3601_15695"/>
</filter>
<linearGradient id="paint0_linear_3601_15695" x1="1157.67" y1="541.898" x2="954.104" y2="683.989" gradientUnits="userSpaceOnUse">
<stop stop-color="#8C6CE4"/>
<stop offset="1" stop-color="#4C3790"/>
</linearGradient>
<radialGradient id="paint1_radial_3601_15695" cx="0" cy="0" r="1" gradientUnits="userSpaceOnUse" gradientTransform="translate(960.538 700.136) rotate(-31.9043) scale(205.692 272.416)">
<stop stop-color="#00FF74"/>
<stop offset="1" stop-color="#FCFC06" stop-opacity="0"/>
</radialGradient>
<linearGradient id="paint2_linear_3601_15695" x1="1157.67" y1="541.898" x2="954.104" y2="683.989" gradientUnits="userSpaceOnUse">
<stop stop-color="#8C6CE4"/>
<stop offset="1" stop-color="#4C3790"/>
</linearGradient>
<radialGradient id="paint3_radial_3601_15695" cx="0" cy="0" r="1" gradientUnits="userSpaceOnUse" gradientTransform="translate(960.538 700.136) rotate(-31.9043) scale(205.692 272.416)">
<stop stop-color="#00FF74"/>
<stop offset="1" stop-color="#FCFC06" stop-opacity="0"/>
</radialGradient>
<linearGradient id="paint4_linear_3601_15695" x1="1157.67" y1="541.898" x2="954.104" y2="683.989" gradientUnits="userSpaceOnUse">
<stop stop-color="#8C6CE4"/>
<stop offset="1" stop-color="#4C3790"/>
</linearGradient>
<radialGradient id="paint5_radial_3601_15695" cx="0" cy="0" r="1" gradientUnits="userSpaceOnUse" gradientTransform="translate(960.538 700.136) rotate(-31.9043) scale(205.692 272.416)">
<stop stop-color="#00FF74"/>
<stop offset="1" stop-color="#FCFC06" stop-opacity="0"/>
</radialGradient>
<radialGradient id="paint6_radial_3601_15695" cx="0" cy="0" r="1" gradientUnits="userSpaceOnUse" gradientTransform="translate(946.888 694.946) rotate(-39.6473) scale(162.243 181.701)">
<stop stop-color="#00FF74"/>
<stop offset="1" stop-color="#52FFA1" stop-opacity="0"/>
</radialGradient>
<linearGradient id="paint7_linear_3601_15695" x1="890.201" y1="741.951" x2="1015.51" y2="694.242" gradientUnits="userSpaceOnUse">
<stop stop-color="white"/>
<stop offset="1" stop-color="white" stop-opacity="0"/>
</linearGradient>
<linearGradient id="paint8_linear_3601_15695" x1="1029.28" y1="609.494" x2="948.767" y2="611.772" gradientUnits="userSpaceOnUse">
<stop stop-color="#52FFA1" stop-opacity="0"/>
<stop offset="1" stop-color="#52FFA1"/>
</linearGradient>
<linearGradient id="paint9_linear_3601_15695" x1="1019.09" y1="535.801" x2="1051.62" y2="622.313" gradientUnits="userSpaceOnUse">
<stop stop-color="#8247E5"/>
<stop offset="1" stop-color="#8247E5"/>
</linearGradient>
<linearGradient id="paint10_linear_3601_15695" x1="1019.09" y1="535.801" x2="1051.62" y2="622.313" gradientUnits="userSpaceOnUse">
<stop stop-color="#8247E5"/>
<stop offset="1" stop-color="#8247E5"/>
</linearGradient>
<linearGradient id="paint11_linear_3601_15695" x1="1019.09" y1="535.801" x2="1051.62" y2="622.313" gradientUnits="userSpaceOnUse">
<stop stop-color="#8247E5"/>
<stop offset="1" stop-color="#8247E5"/>
</linearGradient>
<linearGradient id="paint12_linear_3601_15695" x1="1019.09" y1="535.801" x2="1051.62" y2="622.313" gradientUnits="userSpaceOnUse">
<stop stop-color="#8247E5"/>
<stop offset="1" stop-color="#8247E5"/>
</linearGradient>
<linearGradient id="paint13_linear_3601_15695" x1="1019.09" y1="535.801" x2="1051.62" y2="622.313" gradientUnits="userSpaceOnUse">
<stop stop-color="#8247E5"/>
<stop offset="1" stop-color="#8247E5"/>
</linearGradient>
<linearGradient id="paint14_linear_3601_15695" x1="1019.09" y1="535.801" x2="1051.62" y2="622.313" gradientUnits="userSpaceOnUse">
<stop stop-color="#8247E5"/>
<stop offset="1" stop-color="#8247E5"/>
</linearGradient>
</defs>
</svg>
