<svg width="1440" height="1060" viewBox="0 0 1440 1060" fill="none" xmlns="http://www.w3.org/2000/svg">
<g clip-path="url(#clip0_3682_17592)">
<g opacity="0.2">
<path d="M1196.79 379.917C1188.6 378.726 1183.21 375.055 1181.1 370.059C1180.97 369.75 1180.85 369.436 1180.74 369.117C1179.08 364.11 1180.53 357.921 1185.51 351.609L1185.7 351.367L1232.7 291.799C1243.12 278.586 1265.07 269.838 1281.73 272.259L1354.1 282.781C1354.91 282.898 1355.68 283.039 1356.43 283.203C1363.17 284.673 1367.69 287.986 1369.67 292.348C1372.03 297.552 1370.78 304.249 1365.38 311.09L1318.2 370.9C1307.77 384.113 1285.82 392.861 1269.17 390.439L1196.79 379.917Z" fill="url(#paint0_linear_3682_17592)"/>
<path d="M1196.79 379.917C1188.6 378.726 1183.21 375.055 1181.1 370.059C1180.97 369.75 1180.85 369.436 1180.74 369.117C1179.08 364.11 1180.53 357.921 1185.51 351.609L1185.7 351.367L1232.7 291.799C1243.12 278.586 1265.07 269.838 1281.73 272.259L1354.1 282.781C1354.91 282.898 1355.68 283.039 1356.43 283.203C1363.17 284.673 1367.69 287.986 1369.67 292.348C1372.03 297.552 1370.78 304.249 1365.38 311.09L1318.2 370.9C1307.77 384.113 1285.82 392.861 1269.17 390.439L1196.79 379.917Z" fill="url(#paint1_radial_3682_17592)" fill-opacity="0.9"/>
<path d="M1180.74 369.117C1179.08 364.11 1180.53 357.921 1185.51 351.609L1185.7 351.367L1176.4 360.388L1180.74 369.117Z" fill="url(#paint2_linear_3682_17592)"/>
<path d="M1180.74 369.117C1179.08 364.11 1180.53 357.921 1185.51 351.609L1185.7 351.367L1176.4 360.388L1180.74 369.117Z" fill="url(#paint3_radial_3682_17592)" fill-opacity="0.9"/>
<path d="M1369.67 292.348L1367.27 282.191L1356.43 283.203C1363.17 284.673 1367.69 287.986 1369.67 292.348Z" fill="url(#paint4_linear_3682_17592)"/>
<path d="M1369.67 292.348L1367.27 282.191L1356.43 283.203C1363.17 284.673 1367.69 287.986 1369.67 292.348Z" fill="url(#paint5_radial_3682_17592)" fill-opacity="0.9"/>
<path d="M1190.4 368.786C1175.06 366.556 1170.41 354.885 1180.01 342.718L1230.18 279.121C1239.78 266.954 1260 258.898 1275.33 261.128L1352.48 272.344C1367.82 274.574 1372.47 286.245 1362.87 298.412L1312.7 362.009C1303.1 374.176 1282.88 382.232 1267.55 380.002L1190.4 368.786Z" fill="url(#paint6_linear_3682_17592)"/>
<g opacity="0.3" filter="url(#filter0_f_3682_17592)">
<rect width="75.2094" height="73.3185" rx="36.6592" transform="matrix(0.995128 0.098591 -0.645965 0.763367 1256.79 285.484)" fill="#52FFA1"/>
<path d="M1254.6 330.069C1253.99 330.008 1253.56 329.762 1253.4 329.385L1249.34 319.349C1249.26 319.163 1249.24 318.949 1249.31 318.72C1249.37 318.491 1249.5 318.252 1249.7 318.016C1249.9 317.779 1250.15 317.551 1250.45 317.344C1250.76 317.137 1251.1 316.956 1251.45 316.81C1251.81 316.665 1252.18 316.559 1252.54 316.497C1252.9 316.436 1253.25 316.422 1253.55 316.454C1253.86 316.487 1254.12 316.566 1254.33 316.687C1254.53 316.808 1254.67 316.969 1254.74 317.16L1258.12 325.494L1295.47 306.047C1295.81 305.866 1296.17 305.718 1296.54 305.611C1296.91 305.505 1297.27 305.442 1297.61 305.427C1297.95 305.412 1298.26 305.445 1298.53 305.523C1298.79 305.602 1298.99 305.725 1299.13 305.885C1299.27 306.045 1299.34 306.239 1299.34 306.455C1299.34 306.671 1299.26 306.906 1299.11 307.145C1298.97 307.383 1298.76 307.622 1298.49 307.845C1298.22 308.069 1297.91 308.274 1297.57 308.447L1257.15 329.491C1256.78 329.687 1256.38 329.843 1255.97 329.946C1255.57 330.05 1255.17 330.098 1254.81 330.089C1254.74 330.082 1254.67 330.075 1254.6 330.069Z" fill="#081910"/>
</g>
<g opacity="0.3">
<rect width="75.2094" height="73.3185" rx="36.6592" transform="matrix(0.995128 0.098591 -0.645965 0.763367 1256.79 285.488)" fill="#52FFA1"/>
<path d="M1254.6 330.072C1253.99 330.011 1253.56 329.766 1253.4 329.389L1249.34 319.353C1249.26 319.167 1249.24 318.953 1249.31 318.724C1249.37 318.495 1249.5 318.256 1249.7 318.019C1249.9 317.783 1250.15 317.555 1250.45 317.348C1250.76 317.141 1251.1 316.96 1251.45 316.814C1251.81 316.669 1252.18 316.563 1252.54 316.501C1252.9 316.44 1253.25 316.425 1253.55 316.458C1253.86 316.491 1254.12 316.57 1254.33 316.691C1254.53 316.812 1254.67 316.973 1254.74 317.164L1258.12 325.498L1295.47 306.051C1295.81 305.87 1296.17 305.722 1296.54 305.615C1296.91 305.509 1297.27 305.446 1297.61 305.431C1297.95 305.416 1298.27 305.448 1298.53 305.527C1298.79 305.606 1298.99 305.729 1299.13 305.889C1299.27 306.049 1299.34 306.243 1299.34 306.459C1299.34 306.675 1299.26 306.91 1299.11 307.149C1298.97 307.387 1298.76 307.626 1298.49 307.849C1298.22 308.073 1297.91 308.278 1297.57 308.451L1257.15 329.495C1256.78 329.691 1256.38 329.847 1255.97 329.95C1255.57 330.053 1255.17 330.102 1254.81 330.093C1254.74 330.086 1254.67 330.079 1254.6 330.072Z" fill="#081910"/>
</g>
<g style="mix-blend-mode:screen">
<path d="M1230.58 279.431L1180.4 343.028C1175.67 349.029 1174.53 354.801 1176.32 359.294C1178.11 363.787 1182.9 367.192 1190.47 368.291L1267.62 379.508C1275.18 380.607 1283.98 379.172 1292.09 375.94C1300.2 372.708 1307.57 367.698 1312.3 361.7L1362.48 298.103C1367.21 292.102 1368.35 286.33 1366.56 281.837C1364.77 277.344 1359.98 273.939 1352.41 272.839L1275.26 261.623C1267.7 260.524 1258.9 261.958 1250.79 265.19C1242.68 268.423 1235.31 273.433 1230.58 279.431Z" fill="url(#paint7_radial_3682_17592)"/>
<path d="M1230.58 279.431L1180.4 343.028C1175.67 349.029 1174.53 354.801 1176.32 359.294C1178.11 363.787 1182.9 367.192 1190.47 368.291L1267.62 379.508C1275.18 380.607 1283.98 379.172 1292.09 375.94C1300.2 372.708 1307.57 367.698 1312.3 361.7L1362.48 298.103C1367.21 292.102 1368.35 286.33 1366.56 281.837C1364.77 277.344 1359.98 273.939 1352.41 272.839L1275.26 261.623C1267.7 260.524 1258.9 261.958 1250.79 265.19C1242.68 268.423 1235.31 273.433 1230.58 279.431Z" fill="url(#paint8_radial_3682_17592)"/>
<path d="M1230.58 279.431L1180.4 343.028C1175.67 349.029 1174.53 354.801 1176.32 359.294C1178.11 363.787 1182.9 367.192 1190.47 368.291L1267.62 379.508C1275.18 380.607 1283.98 379.172 1292.09 375.94C1300.2 372.708 1307.57 367.698 1312.3 361.7L1362.48 298.103C1367.21 292.102 1368.35 286.33 1366.56 281.837C1364.77 277.344 1359.98 273.939 1352.41 272.839L1275.26 261.623C1267.7 260.524 1258.9 261.958 1250.79 265.19C1242.68 268.423 1235.31 273.433 1230.58 279.431Z" stroke="url(#paint9_linear_3682_17592)"/>
</g>
</g>
<g opacity="0.3">
<path d="M255.687 353.816C262.852 353.592 267.843 350.959 270.153 346.868C270.296 346.615 270.428 346.357 270.55 346.093C272.469 341.947 271.828 336.481 268.161 330.563L268.021 330.337L233.41 274.492C225.733 262.105 207.702 252.432 193.136 252.887L129.839 254.863C129.136 254.885 128.454 254.93 127.793 254.998C121.853 255.604 117.642 258.013 115.512 261.572C112.971 265.818 113.39 271.702 117.365 278.116L152.116 334.187C159.793 346.574 177.824 356.247 192.39 355.792L255.687 353.816Z" fill="url(#paint10_linear_3682_17592)"/>
<path d="M255.687 353.816C262.852 353.592 267.843 350.959 270.153 346.868C270.296 346.615 270.428 346.357 270.55 346.093C272.469 341.947 271.828 336.481 268.161 330.563L268.021 330.337L233.41 274.492C225.733 262.105 207.702 252.432 193.136 252.887L129.839 254.863C129.136 254.885 128.454 254.93 127.793 254.998C121.853 255.604 117.642 258.013 115.512 261.572C112.971 265.818 113.39 271.702 117.365 278.116L152.116 334.187C159.793 346.574 177.824 356.247 192.39 355.792L255.687 353.816Z" fill="url(#paint11_radial_3682_17592)"/>
<path d="M270.55 346.093C272.469 341.947 271.828 336.481 268.161 330.563L268.021 330.337L275.135 339.007L270.55 346.093Z" fill="url(#paint12_linear_3682_17592)"/>
<path d="M270.55 346.093C272.469 341.947 271.828 336.481 268.161 330.563L268.021 330.337L275.135 339.007L270.55 346.093Z" fill="url(#paint13_radial_3682_17592)"/>
<path d="M115.512 261.572L118.565 253.068L127.793 254.998C121.853 255.604 117.642 258.013 115.512 261.572Z" fill="url(#paint14_linear_3682_17592)"/>
<path d="M115.512 261.572L118.565 253.068L127.793 254.998C121.853 255.604 117.642 258.013 115.512 261.572Z" fill="url(#paint15_radial_3682_17592)"/>
<path d="M236.449 264.056L273.4 323.678C276.886 329.304 277.303 334.381 275.324 338.071C273.344 341.762 268.883 344.222 262.268 344.429L194.795 346.536C188.183 346.742 180.754 344.648 174.091 341.074C167.429 337.5 161.576 332.469 158.09 326.845L121.14 267.224C117.653 261.598 117.236 256.52 119.215 252.83C121.195 249.14 125.656 246.679 132.272 246.472L199.744 244.365C206.356 244.159 213.786 246.253 220.448 249.827C227.11 253.401 232.964 258.432 236.449 264.056Z" fill="black"/>
<path d="M236.449 264.056L273.4 323.678C276.886 329.304 277.303 334.381 275.324 338.071C273.344 341.762 268.883 344.222 262.268 344.429L194.795 346.536C188.183 346.742 180.754 344.648 174.091 341.074C167.429 337.5 161.576 332.469 158.09 326.845L121.14 267.224C117.653 261.598 117.236 256.52 119.215 252.83C121.195 249.14 125.656 246.679 132.272 246.472L199.744 244.365C206.356 244.159 213.786 246.253 220.448 249.827C227.11 253.401 232.964 258.432 236.449 264.056Z" fill="#52FFA1" fill-opacity="0.1"/>
<path d="M236.449 264.056L273.4 323.678C276.886 329.304 277.303 334.381 275.324 338.071C273.344 341.762 268.883 344.222 262.268 344.429L194.795 346.536C188.183 346.742 180.754 344.648 174.091 341.074C167.429 337.5 161.576 332.469 158.09 326.845L121.14 267.224C117.653 261.598 117.236 256.52 119.215 252.83C121.195 249.14 125.656 246.679 132.272 246.472L199.744 244.365C206.356 244.159 213.786 246.253 220.448 249.827C227.11 253.401 232.964 258.432 236.449 264.056Z" fill="black" fill-opacity="0.2"/>
<path d="M236.449 264.056L273.4 323.678C276.886 329.304 277.303 334.381 275.324 338.071C273.344 341.762 268.883 344.222 262.268 344.429L194.795 346.536C188.183 346.742 180.754 344.648 174.091 341.074C167.429 337.5 161.576 332.469 158.09 326.845L121.14 267.224C117.653 261.598 117.236 256.52 119.215 252.83C121.195 249.14 125.656 246.679 132.272 246.472L199.744 244.365C206.356 244.159 213.786 246.253 220.448 249.827C227.11 253.401 232.964 258.432 236.449 264.056Z" stroke="url(#paint16_linear_3682_17592)" stroke-width="0.865895"/>
<g filter="url(#filter1_f_3682_17592)">
<path d="M246.863 333.144C257.095 332.824 261.018 325.511 255.626 316.81L227.438 271.328C222.045 262.626 209.379 255.831 199.147 256.151L147.676 257.758C137.444 258.078 133.521 265.391 138.914 274.092L167.101 319.574C172.494 328.276 185.161 335.071 195.393 334.751L246.863 333.144Z" fill="#52FFA1"/>
</g>
<path d="M246.863 333.144C257.095 332.824 261.018 325.511 255.626 316.81L227.438 271.328C222.045 262.626 209.379 255.831 199.147 256.151L147.676 257.758C137.444 258.078 133.521 265.391 138.914 274.092L167.101 319.574C172.494 328.276 185.161 335.071 195.393 334.751L246.863 333.144Z" fill="#52FFA1"/>
<path opacity="0.62" d="M170.925 268.838C170.348 268.565 169.752 268.398 169.206 268.358C168.659 268.317 168.182 268.403 167.83 268.607C167.477 268.81 167.261 269.124 167.207 269.511C167.153 269.899 167.263 270.346 167.525 270.801L192.861 314.969C193.122 315.425 193.525 315.871 194.023 316.259C194.522 316.647 195.097 316.96 195.683 317.164C196.27 317.367 196.846 317.454 197.345 317.413C197.845 317.372 198.249 317.205 198.513 316.932L219.79 294.848C220.011 294.62 220.126 294.323 220.127 293.982C220.128 293.642 220.014 293.266 219.796 292.885C219.577 292.504 219.26 292.129 218.868 291.788C218.476 291.447 218.021 291.151 217.538 290.922L170.925 268.838Z" fill="black"/>
<g style="mix-blend-mode:screen">
<path d="M236.449 264.056L273.4 323.678C276.886 329.304 277.303 334.381 275.324 338.071C273.344 341.762 268.883 344.222 262.268 344.429L194.795 346.536C188.183 346.742 180.754 344.648 174.091 341.074C167.429 337.5 161.576 332.469 158.09 326.845L121.14 267.224C117.653 261.598 117.236 256.52 119.215 252.83C121.195 249.14 125.656 246.679 132.272 246.472L199.744 244.365C206.356 244.159 213.786 246.253 220.448 249.827C227.11 253.401 232.964 258.432 236.449 264.056Z" fill="url(#paint17_radial_3682_17592)"/>
<path d="M236.449 264.056L273.4 323.678C276.886 329.304 277.303 334.381 275.324 338.071C273.344 341.762 268.883 344.222 262.268 344.429L194.795 346.536C188.183 346.742 180.754 344.648 174.091 341.074C167.429 337.5 161.576 332.469 158.09 326.845L121.14 267.224C117.653 261.598 117.236 256.52 119.215 252.83C121.195 249.14 125.656 246.679 132.272 246.472L199.744 244.365C206.356 244.159 213.786 246.253 220.448 249.827C227.11 253.401 232.964 258.432 236.449 264.056Z" fill="url(#paint18_linear_3682_17592)"/>
<path d="M236.449 264.056L273.4 323.678C276.886 329.304 277.303 334.381 275.324 338.071C273.344 341.762 268.883 344.222 262.268 344.429L194.795 346.536C188.183 346.742 180.754 344.648 174.091 341.074C167.429 337.5 161.576 332.469 158.09 326.845L121.14 267.224C117.653 261.598 117.236 256.52 119.215 252.83C121.195 249.14 125.656 246.679 132.272 246.472L199.744 244.365C206.356 244.159 213.786 246.253 220.448 249.827C227.11 253.401 232.964 258.432 236.449 264.056Z" stroke="url(#paint19_linear_3682_17592)" stroke-width="0.865895"/>
</g>
</g>
</g>
<defs>
<filter id="filter0_f_3682_17592" x="1170.43" y="246.484" width="200.204" height="141.385" filterUnits="userSpaceOnUse" color-interpolation-filters="sRGB">
<feFlood flood-opacity="0" result="BackgroundImageFix"/>
<feBlend mode="normal" in="SourceGraphic" in2="BackgroundImageFix" result="shape"/>
<feGaussianBlur stdDeviation="19.5" result="effect1_foregroundBlur_3682_17592"/>
</filter>
<filter id="filter1_f_3682_17592" x="103.59" y="223.237" width="187.36" height="144.429" filterUnits="userSpaceOnUse" color-interpolation-filters="sRGB">
<feFlood flood-opacity="0" result="BackgroundImageFix"/>
<feBlend mode="normal" in="SourceGraphic" in2="BackgroundImageFix" result="shape"/>
<feGaussianBlur stdDeviation="16.452" result="effect1_foregroundBlur_3682_17592"/>
</filter>
<linearGradient id="paint0_linear_3682_17592" x1="1365.73" y1="249.403" x2="1228.1" y2="371.541" gradientUnits="userSpaceOnUse">
<stop offset="0.545508" stop-color="#010916"/>
<stop offset="1" stop-color="#1D1A24"/>
</linearGradient>
<radialGradient id="paint1_radial_3682_17592" cx="0" cy="0" r="1" gradientUnits="userSpaceOnUse" gradientTransform="translate(1147.99 403.843) rotate(-35.5114) scale(311.403 2103.44)">
<stop stop-color="white"/>
<stop offset="0.128166" stop-color="#52FFA1"/>
<stop offset="0.498777" stop-opacity="0"/>
</radialGradient>
<linearGradient id="paint2_linear_3682_17592" x1="1365.73" y1="249.403" x2="1228.1" y2="371.541" gradientUnits="userSpaceOnUse">
<stop offset="0.545508" stop-color="#010916"/>
<stop offset="1" stop-color="#1D1A24"/>
</linearGradient>
<radialGradient id="paint3_radial_3682_17592" cx="0" cy="0" r="1" gradientUnits="userSpaceOnUse" gradientTransform="translate(1147.99 403.843) rotate(-35.5114) scale(311.403 2103.44)">
<stop stop-color="white"/>
<stop offset="0.128166" stop-color="#52FFA1"/>
<stop offset="0.498777" stop-opacity="0"/>
</radialGradient>
<linearGradient id="paint4_linear_3682_17592" x1="1365.73" y1="249.403" x2="1228.1" y2="371.541" gradientUnits="userSpaceOnUse">
<stop offset="0.545508" stop-color="#010916"/>
<stop offset="1" stop-color="#1D1A24"/>
</linearGradient>
<radialGradient id="paint5_radial_3682_17592" cx="0" cy="0" r="1" gradientUnits="userSpaceOnUse" gradientTransform="translate(1147.99 403.843) rotate(-35.5114) scale(311.403 2103.44)">
<stop stop-color="white"/>
<stop offset="0.128166" stop-color="#52FFA1"/>
<stop offset="0.498777" stop-opacity="0"/>
</radialGradient>
<linearGradient id="paint6_linear_3682_17592" x1="1253.11" y1="223.559" x2="1294.52" y2="390.267" gradientUnits="userSpaceOnUse">
<stop offset="0.160598" stop-color="#010916"/>
<stop offset="1" stop-color="#1D1A24"/>
</linearGradient>
<radialGradient id="paint7_radial_3682_17592" cx="0" cy="0" r="1" gradientUnits="userSpaceOnUse" gradientTransform="translate(1152.34 385.739) rotate(-38.047) scale(190.369 209.139)">
<stop offset="0.31345" stop-color="#52FFA1"/>
<stop offset="0.855034" stop-color="#654FC6" stop-opacity="0"/>
</radialGradient>
<radialGradient id="paint8_radial_3682_17592" cx="0" cy="0" r="1" gradientUnits="userSpaceOnUse" gradientTransform="translate(1516.3 224.95) rotate(155.868) scale(211.281 226.192)">
<stop stop-color="white"/>
<stop offset="1" stop-color="white" stop-opacity="0"/>
</radialGradient>
<linearGradient id="paint9_linear_3682_17592" x1="1385.24" y1="332.843" x2="1209.81" y2="273.331" gradientUnits="userSpaceOnUse">
<stop offset="0.0848038" stop-color="#ECD1FF"/>
<stop offset="0.530938" stop-color="#8959E8" stop-opacity="0"/>
</linearGradient>
<linearGradient id="paint10_linear_3682_17592" x1="265.346" y1="347.392" x2="205.469" y2="385.156" gradientUnits="userSpaceOnUse">
<stop stop-color="#252626"/>
<stop offset="1"/>
</linearGradient>
<radialGradient id="paint11_radial_3682_17592" cx="0" cy="0" r="1" gradientUnits="userSpaceOnUse" gradientTransform="translate(243.818 354.792) rotate(-139.914) scale(136.956 302.534)">
<stop stop-color="#FFA4FB"/>
<stop offset="1" stop-color="#9CBEB6" stop-opacity="0"/>
</radialGradient>
<linearGradient id="paint12_linear_3682_17592" x1="265.346" y1="347.392" x2="205.469" y2="385.156" gradientUnits="userSpaceOnUse">
<stop stop-color="#252626"/>
<stop offset="1"/>
</linearGradient>
<radialGradient id="paint13_radial_3682_17592" cx="0" cy="0" r="1" gradientUnits="userSpaceOnUse" gradientTransform="translate(243.818 354.792) rotate(-139.914) scale(136.956 302.534)">
<stop stop-color="#FFA4FB"/>
<stop offset="1" stop-color="#9CBEB6" stop-opacity="0"/>
</radialGradient>
<linearGradient id="paint14_linear_3682_17592" x1="265.346" y1="347.392" x2="205.469" y2="385.156" gradientUnits="userSpaceOnUse">
<stop stop-color="#252626"/>
<stop offset="1"/>
</linearGradient>
<radialGradient id="paint15_radial_3682_17592" cx="0" cy="0" r="1" gradientUnits="userSpaceOnUse" gradientTransform="translate(243.818 354.792) rotate(-139.914) scale(136.956 302.534)">
<stop stop-color="#FFA4FB"/>
<stop offset="1" stop-color="#9CBEB6" stop-opacity="0"/>
</radialGradient>
<linearGradient id="paint16_linear_3682_17592" x1="155.792" y1="351.138" x2="254.914" y2="260.838" gradientUnits="userSpaceOnUse">
<stop offset="0.150613" stop-color="#A7FFCF"/>
<stop offset="0.469441" stop-color="#52FFA1" stop-opacity="0"/>
</linearGradient>
<radialGradient id="paint17_radial_3682_17592" cx="0" cy="0" r="1" gradientUnits="userSpaceOnUse" gradientTransform="translate(104.867 402.354) rotate(-56.1303) scale(174.607 568.068)">
<stop stop-color="#D83C93"/>
<stop offset="1" stop-color="#D73B92" stop-opacity="0"/>
</radialGradient>
<linearGradient id="paint18_linear_3682_17592" x1="154.118" y1="462.427" x2="227.137" y2="306.551" gradientUnits="userSpaceOnUse">
<stop stop-color="white"/>
<stop offset="1" stop-color="white" stop-opacity="0"/>
</linearGradient>
<linearGradient id="paint19_linear_3682_17592" x1="155.792" y1="351.138" x2="254.914" y2="260.838" gradientUnits="userSpaceOnUse">
<stop offset="0.150613" stop-color="#A7FFCF"/>
<stop offset="0.469441" stop-color="#52FFA1" stop-opacity="0"/>
</linearGradient>
<clipPath id="clip0_3682_17592">
<rect width="1440" height="1060" fill="white"/>
</clipPath>
</defs>
</svg>
