<svg width="163" height="49" viewBox="0 0 163 49" fill="none" xmlns="http://www.w3.org/2000/svg">
<rect x="1.32876" y="1.08267" width="160.764" height="46.7644" rx="9.26736" fill="#020A17"/>
<path d="M82.4753 26.5663C79.6529 26.5663 77.3525 28.7119 77.3525 31.6699C77.3525 34.6087 79.6529 36.7735 82.4753 36.7735C85.2977 36.7735 87.5981 34.6087 87.5981 31.6699C87.5981 28.7119 85.2977 26.5663 82.4753 26.5663ZM82.4753 34.7635C80.9285 34.7635 79.5941 33.4879 79.5941 31.6699C79.5941 29.8327 80.9285 28.5763 82.4753 28.5763C84.0221 28.5763 85.3553 29.8327 85.3553 31.6699C85.3553 33.4867 84.0221 34.7635 82.4753 34.7635ZM71.2985 26.5663C68.4761 26.5663 66.1757 28.7119 66.1757 31.6699C66.1757 34.6087 68.4761 36.7735 71.2985 36.7735C74.1209 36.7735 76.4213 34.6087 76.4213 31.6699C76.4225 28.7119 74.1209 26.5663 71.2985 26.5663ZM71.2985 34.7635C69.7517 34.7635 68.4185 33.4879 68.4185 31.6699C68.4185 29.8327 69.7529 28.5763 71.2985 28.5763C72.8453 28.5763 74.1785 29.8327 74.1785 31.6699C74.1797 33.4867 72.8453 34.7635 71.2985 34.7635ZM58.0049 30.2971H63.1865C63.0317 31.5151 62.6261 32.4043 62.0069 33.0235C61.2533 33.7771 60.0737 34.6087 58.0049 34.6087C54.8153 34.6087 52.3217 32.0371 52.3217 28.8475C52.3217 25.6579 54.8153 23.0863 58.0049 23.0863C59.7257 23.0863 60.9821 23.7631 61.9097 24.6331L63.4373 23.1055C62.1425 21.8683 60.4217 20.9203 58.0049 20.9203C53.6357 20.9203 49.9625 24.4771 49.9625 28.8463C49.9625 33.2155 53.6357 36.7723 58.0049 36.7723C60.3629 36.7723 62.1425 35.9995 63.5345 34.5487C64.9649 33.1183 65.4101 31.1071 65.4101 29.4835C65.4101 28.9807 65.3717 28.5163 65.2937 28.1299H58.0049V30.2971ZM112.374 29.8135C111.95 28.6723 110.654 26.5651 108.005 26.5651C105.376 26.5651 103.192 28.6339 103.192 31.6687C103.192 34.5295 105.357 36.7723 108.257 36.7723C110.596 36.7723 111.95 35.3419 112.51 34.5103L110.77 33.3499C110.19 34.2007 109.397 34.7611 108.257 34.7611C107.116 34.7611 106.305 34.2391 105.783 33.2143L112.607 30.3919L112.374 29.8135ZM105.414 31.5151C105.357 29.5435 106.942 28.5379 108.082 28.5379C108.971 28.5379 109.725 28.9819 109.977 29.6203L105.414 31.5151ZM99.8657 36.4639H102.108V21.4627H99.8657V36.4639ZM96.1925 27.7063H96.1157C95.6129 27.1075 94.6469 26.5651 93.4289 26.5651C90.8765 26.5651 88.5377 28.8079 88.5377 31.6879C88.5377 34.5487 90.8765 36.7723 93.4289 36.7723C94.6469 36.7723 95.6129 36.2311 96.1157 35.6119H96.1925V36.3463C96.1925 38.2987 95.1485 39.3427 93.4661 39.3427C92.0933 39.3427 91.2425 38.3563 90.8945 37.5259L88.9421 38.3383C89.5025 39.6919 90.9917 41.3539 93.4661 41.3539C96.0953 41.3539 98.3189 39.8071 98.3189 36.0379V26.8747H96.1925V27.7063ZM93.6221 34.7635C92.0753 34.7635 90.7805 33.4687 90.7805 31.6891C90.7805 29.8915 92.0753 28.5763 93.6221 28.5763C95.1497 28.5763 96.3473 29.8903 96.3473 31.6891C96.3473 33.4675 95.1497 34.7635 93.6221 34.7635ZM122.879 21.4627H117.514V36.4639H119.752V30.7807H122.878C125.36 30.7807 127.799 28.9843 127.799 26.1223C127.799 23.2603 125.361 21.4627 122.879 21.4627ZM122.937 28.6927H119.752V23.5507H122.937C124.611 23.5507 125.561 24.9367 125.561 26.1223C125.561 27.2839 124.611 28.6927 122.937 28.6927ZM136.775 26.5387C135.154 26.5387 133.475 27.2527 132.78 28.8355L134.769 29.6659C135.194 28.8355 135.984 28.5655 136.815 28.5655C137.973 28.5655 139.15 29.2603 139.169 30.4951V30.6499C138.764 30.4183 137.895 30.0703 136.834 30.0703C134.692 30.0703 132.51 31.2475 132.51 33.4483C132.51 35.4559 134.267 36.7483 136.235 36.7483C137.741 36.7483 138.57 36.0727 139.091 35.2819H139.168V36.4399H141.329V30.6883C141.329 28.0243 139.342 26.5387 136.775 26.5387ZM136.504 34.7599C135.771 34.7599 134.747 34.3927 134.747 33.4867C134.747 32.3287 136.022 31.8847 137.121 31.8847C138.105 31.8847 138.568 32.0971 139.167 32.3863C138.994 33.7759 137.798 34.7599 136.504 34.7599ZM149.204 26.8663L146.637 33.3703H146.56L143.897 26.8663H141.485L145.48 35.9563L143.202 41.0131H145.538L151.695 26.8663H149.204ZM129.035 36.4639H131.274V21.4627H129.035V36.4639Z" fill="white"/>
<path d="M57.5621 12.2131H54.0725V13.0783H56.6873C56.6165 13.7815 56.3345 14.3347 55.8629 14.7367C55.3901 15.1387 54.7865 15.3403 54.0725 15.3403C53.2877 15.3403 52.6241 15.0691 52.0817 14.5255C51.5489 13.9723 51.2765 13.2895 51.2765 12.4639C51.2765 11.6395 51.5489 10.9555 52.0817 10.4023C52.6241 9.85992 53.2877 9.58872 54.0725 9.58872C54.4745 9.58872 54.8573 9.65832 55.2089 9.80953C55.5605 9.96072 55.8425 10.1719 56.0633 10.4431L56.7269 9.77952C56.4257 9.43752 56.0429 9.17592 55.5713 8.98512C55.0985 8.79432 54.6053 8.70312 54.0725 8.70312C53.0261 8.70312 52.1417 9.06552 51.4181 9.78912C50.6933 10.5139 50.3321 11.4079 50.3321 12.4639C50.3321 13.5199 50.6933 14.4151 51.4181 15.1387C52.1417 15.8635 53.0261 16.2247 54.0725 16.2247C55.1681 16.2247 56.0429 15.8731 56.7173 15.1591C57.3101 14.5663 57.6125 13.7611 57.6125 12.7555C57.6125 12.5851 57.5921 12.4039 57.5621 12.2131Z" fill="white"/>
<path d="M58.9397 8.86393V16.0639H63.1433V15.1795H59.8649V12.8971H62.8205V12.0319H59.8649V9.74953H63.1433V8.86393H58.9397Z" fill="white"/>
<path d="M69.0545 9.74953V8.86393H64.1069V9.74953H66.1181V16.0639H67.0433V9.74953H69.0545Z" fill="white"/>
<path d="M73.5604 8.86393H72.6352V16.0639H73.5604V8.86393Z" fill="white"/>
<path d="M79.6744 9.74953V8.86393H74.7268V9.74953H76.738V16.0639H77.6632V9.74953H79.6744Z" fill="white"/>
<path d="M89.0369 9.79992C88.3229 9.06552 87.4481 8.70312 86.4017 8.70312C85.3565 8.70312 84.4805 9.06552 83.7665 9.78912C83.0525 10.5031 82.7009 11.3983 82.7009 12.4639C82.7009 13.5307 83.0525 14.4247 83.7665 15.1387C84.4805 15.8635 85.3565 16.2247 86.4017 16.2247C87.4373 16.2247 88.3229 15.8635 89.0369 15.1387C89.7509 14.4247 90.1025 13.5307 90.1025 12.4639C90.1025 11.4079 89.7509 10.5139 89.0369 9.79992ZM84.4313 10.4023C84.9641 9.85992 85.6169 9.58872 86.4017 9.58872C87.1865 9.58872 87.8393 9.85992 88.3625 10.4023C88.8953 10.9363 89.1569 11.6299 89.1569 12.4639C89.1569 13.2991 88.8953 13.9927 88.3625 14.5255C87.8393 15.0691 87.1865 15.3403 86.4017 15.3403C85.6169 15.3403 84.9641 15.0691 84.4313 14.5255C83.9081 13.9831 83.6465 13.2991 83.6465 12.4639C83.6465 11.6299 83.9081 10.9459 84.4313 10.4023Z" fill="white"/>
<path d="M92.3249 11.5795L92.2853 10.1911H92.3249L95.9861 16.0639H96.9509V8.86393H96.0257V13.0783L96.0665 14.4655H96.0257L92.5265 8.86393H91.4009V16.0639H92.3249V11.5795Z" fill="white"/>
<path d="M25.5717 23.7731L12.7953 37.3331C12.7965 37.3355 12.7965 37.3379 12.7977 37.3403C13.1889 38.8139 14.5341 39.8975 16.1301 39.8975C16.7685 39.8975 17.3673 39.7247 17.8809 39.4223L17.9217 39.3983L32.3025 31.1003L25.5717 23.7731Z" fill="#EB4335"/>
<path d="M38.4984 21.4645L38.4864 21.4561L32.2776 17.8561L25.2828 24.0805L32.3016 31.0981L38.478 27.5353C39.5604 26.9509 40.2948 25.8097 40.2948 24.4933C40.2948 23.1865 39.57 22.0501 38.4984 21.4645Z" fill="#FABC13"/>
<path d="M12.7957 11.5968C12.7189 11.88 12.6781 12.1764 12.6781 12.4848V36.4452C12.6781 36.7536 12.7173 37.0511 12.7953 37.3331L26.0113 24.12L12.7957 11.5968Z" fill="#547DBF"/>
<path d="M25.6653 24.4644L32.2785 17.8536L17.9133 9.52562C17.3913 9.21242 16.7829 9.03242 16.1301 9.03242C14.5341 9.03242 13.1877 10.1184 12.7953 11.5932L12.7957 11.5968L25.6653 24.4644Z" fill="#30A851"/>
<rect x="1.32876" y="1.08267" width="160.764" height="46.7644" rx="9.26736" stroke="#A6A6A6" stroke-width="1.23565"/>
</svg>
